<svg width="25" height="24" viewBox="0 0 25 24" fill="none" xmlns="http://www.w3.org/2000/svg">
<g clip-path="url(#clip0)">
<path d="M6.7885 0H17.4686C17.9366 0 18.316 0.379359 18.316 0.847359V19.9093C18.316 20.3773 17.9366 20.7567 17.4686 20.7567H2.8083C2.3403 20.7567 1.96094 20.3773 1.96094 19.9093V4.63552C1.96094 4.42059 2.04902 4.21505 2.20464 4.06683L6.24681 0.216703C6.39288 0.0775781 6.58684 0 6.7885 0V0Z" fill="#FFF1F3"/>
<path d="M5.62628 4.29894C6.09428 4.29894 6.47364 3.91958 6.47364 3.45158V0.0664062C6.39044 0.102781 6.31309 0.152891 6.24616 0.216641L2.20398 4.06681C2.13363 4.13384 2.07794 4.21292 2.03711 4.29894H5.62628Z" fill="#E2EBF0"/>
<path d="M17.4688 0H10.1387V20.7567H17.4688C17.9368 20.7567 18.3162 20.3773 18.3162 19.9093V0.847359C18.3162 0.379359 17.9368 0 17.4688 0V0Z" fill="#E2EBF0"/>
<path d="M14.2086 8.17821H6.07006C5.67003 8.17821 5.3457 7.85388 5.3457 7.45385C5.3457 7.05382 5.67003 6.72949 6.07006 6.72949H14.2086C14.6086 6.72949 14.933 7.05382 14.933 7.45385C14.933 7.85393 14.6086 8.17821 14.2086 8.17821Z" fill="#006182"/>
<path d="M14.2086 11.0112H6.07006C5.67003 11.0112 5.3457 10.6869 5.3457 10.2869C5.3457 9.88683 5.67003 9.5625 6.07006 9.5625H14.2086C14.6086 9.5625 14.933 9.88683 14.933 10.2869C14.933 10.6869 14.6086 11.0112 14.2086 11.0112Z" fill="#006182"/>
<path d="M14.2086 13.8433H6.07006C5.67003 13.8433 5.3457 13.5189 5.3457 13.1189C5.3457 12.7189 5.67003 12.3945 6.07006 12.3945H14.2086C14.6086 12.3945 14.933 12.7189 14.933 13.1189C14.933 13.5189 14.6086 13.8433 14.2086 13.8433Z" fill="#006182"/>
<path d="M14.2079 6.72949H10.1387V8.17821H14.2079C14.608 8.17821 14.9323 7.85388 14.9323 7.45385C14.9323 7.05382 14.608 6.72949 14.2079 6.72949Z" fill="#004762"/>
<path d="M14.2079 9.56152H10.1387V11.0102H14.2079C14.608 11.0102 14.9323 10.6859 14.9323 10.2859C14.9323 9.88585 14.608 9.56152 14.2079 9.56152Z" fill="#004762"/>
<path d="M14.2079 12.3945H10.1387V13.8433H14.2079C14.608 13.8433 14.9323 13.5189 14.9323 13.1189C14.9323 12.7189 14.608 12.3945 14.2079 12.3945Z" fill="#004762"/>
<path d="M18.3159 24C15.708 24 13.5938 21.8858 13.5938 19.2779C13.5938 16.6699 15.708 14.5557 18.3159 14.5557C20.9239 14.5557 23.0381 16.6699 23.0381 19.2779C23.0381 21.8858 20.9239 24 18.3159 24Z" fill="#00E26F"/>
<path d="M18.3164 14.5557V24C20.9244 24 23.0386 21.8858 23.0386 19.2779C23.0386 16.6699 20.9244 14.5557 18.3164 14.5557Z" fill="#00C35B"/>
<path d="M17.8733 21.1769C17.6842 21.1769 17.4946 21.1123 17.34 20.9817L16.0798 19.9161C15.7314 19.6215 15.6879 19.1002 15.9824 18.7518C16.277 18.4035 16.7982 18.3597 17.1467 18.6544L17.8265 19.2293L19.435 17.6209C19.7575 17.2982 20.2807 17.2982 20.6033 17.6209C20.9259 17.9435 20.9259 18.4666 20.6033 18.7892L18.4575 20.935C18.297 21.0956 18.0854 21.1769 17.8733 21.1769Z" fill="#FFF1F3"/>
<path d="M19.4352 17.6209L18.3164 18.7396V21.0477C18.3665 21.0158 18.4141 20.9785 18.4578 20.9349L20.6035 18.7892C20.9262 18.4666 20.9262 17.9435 20.6035 17.6209C20.2809 17.2982 19.7578 17.2982 19.4352 17.6209Z" fill="#E2EBF0"/>
</g>
<defs>
<clipPath id="clip0">
<rect width="24" height="24" fill="white" transform="translate(0.5)"/>
</clipPath>
</defs>
</svg>
