<svg width="260" height="470" viewBox="0 0 260 470" fill="none" xmlns="http://www.w3.org/2000/svg">
<g opacity="0.05">
<g clip-path="url(#clip0)">
<path d="M700.365 -122.514C791.845 -122.514 884.711 -122.514 976.19 -122.514C1005.3 -122.514 1015 -111.36 1015 -77.8983C1015 4.95997 1015 86.2248 1015 169.083C1015 202.545 1003.91 215.292 974.804 215.292C801.547 215.293 629.676 215.293 456.419 215.293C427.312 215.293 398.204 220.073 370.483 232.82C331.674 253.535 312.269 288.59 309.497 337.987C309.497 353.921 308.111 368.262 310.883 384.196C317.813 431.999 344.148 460.681 382.958 475.021C409.293 484.582 435.628 487.769 463.349 487.769C632.448 487.769 801.547 487.769 970.646 487.769C1005.3 487.769 1013.61 498.923 1013.61 537.165C1013.61 618.43 1013.61 698.101 1013.61 779.366C1013.61 811.235 1002.53 822.389 974.804 822.389C796.003 822.389 614.429 823.982 434.242 820.795C339.99 819.202 249.896 793.707 175.049 722.003C111.291 659.859 78.0252 578.594 60.0065 487.769C37.8295 376.229 41.9877 266.282 72.481 157.929C115.449 6.5534 206.929 -81.0851 341.376 -111.36C380.186 -120.921 418.995 -124.108 457.805 -124.108C539.582 -122.514 619.974 -122.514 700.365 -122.514Z" fill="#DBF1FB"/>
</g>
</g>
<defs>
<clipPath id="clip0">
<rect width="347" height="470" fill="white" transform="translate(46)"/>
</clipPath>
</defs>
</svg>
