<svg width="59" height="54" viewBox="0 0 59 54" fill="none" xmlns="http://www.w3.org/2000/svg">
<path fill-rule="evenodd" clip-rule="evenodd" d="M13.4457 0.333252H0.667969V5.66659H9.25037L16.6338 39.4735H16.668V40.3333H51.3346V39.6716L57.1832 13.9091L58.0833 10.9999H15.7485L14.2276 4.03598L13.4457 0.333252ZM51.2996 16.3333H16.9133L20.9901 34.9999H47.062L51.2996 16.3333Z" fill="#1997CF"/>
<path d="M24.668 53.6666C27.6135 53.6666 30.0013 51.2788 30.0013 48.3333C30.0013 45.3877 27.6135 42.9999 24.668 42.9999C21.7224 42.9999 19.3346 45.3877 19.3346 48.3333C19.3346 51.2788 21.7224 53.6666 24.668 53.6666Z" fill="#1997CF"/>
<path d="M48.668 48.3333C48.668 51.2788 46.2802 53.6666 43.3346 53.6666C40.3891 53.6666 38.0013 51.2788 38.0013 48.3333C38.0013 45.3877 40.3891 42.9999 43.3346 42.9999C46.2802 42.9999 48.668 45.3877 48.668 48.3333Z" fill="#1997CF"/>
</svg>
