<svg width="32" height="48" viewBox="0 0 32 48" fill="none" xmlns="http://www.w3.org/2000/svg">
<path fill-rule="evenodd" clip-rule="evenodd" d="M26.6667 10.6667C26.6667 16.5577 21.891 21.3333 16 21.3333C10.109 21.3333 5.33333 16.5577 5.33333 10.6667C5.33333 4.77563 10.109 0 16 0C21.891 0 26.6667 4.77563 26.6667 10.6667ZM21.3333 10.6667C21.3333 13.6122 18.9455 16 16 16C13.0545 16 10.6667 13.6122 10.6667 10.6667C10.6667 7.72115 13.0545 5.33333 16 5.33333C18.9455 5.33333 21.3333 7.72115 21.3333 10.6667Z" fill="#1997CF"/>
<path d="M26.6667 32C26.6667 30.5272 25.4728 29.3333 24 29.3333H8C6.52724 29.3333 5.33333 30.5272 5.33333 32V48H0V32C0 27.5817 3.58172 24 8 24H24C28.4183 24 32 27.5817 32 32V48H26.6667V32Z" fill="#1997CF"/>
</svg>
