<svg width="28" height="28" viewBox="0 0 28 28" fill="none" xmlns="http://www.w3.org/2000/svg">
<path d="M21.0007 3.5C21.2864 3.50004 21.5622 3.60495 21.7758 3.79483C21.9893 3.98472 22.1257 4.24637 22.1592 4.53017L22.1673 4.66667V23.3333C22.167 23.6307 22.0531 23.9167 21.849 24.1329C21.6449 24.3492 21.3659 24.4793 21.069 24.4967C20.7722 24.5141 20.4799 24.4175 20.2518 24.2267C20.0238 24.0358 19.8773 23.7651 19.8422 23.4698L19.834 23.3333V17.5H18.6673C18.3816 17.5 18.1058 17.3951 17.8922 17.2052C17.6787 17.0153 17.5423 16.7536 17.5088 16.4698L17.5007 16.3333V9.33333C17.5007 6.755 19.2507 3.5 21.0007 3.5ZM14.0007 3.5C14.2864 3.50004 14.5622 3.60495 14.7758 3.79483C14.9893 3.98472 15.1257 4.24637 15.1592 4.53017L15.1673 4.66667V10.5C15.1672 11.5347 14.8234 12.54 14.1899 13.3581C13.5563 14.1761 12.669 14.7606 11.6673 15.0197V23.3333C11.667 23.6307 11.5531 23.9167 11.349 24.1329C11.1449 24.3492 10.8659 24.4793 10.569 24.4967C10.2722 24.5141 9.97988 24.4175 9.75185 24.2267C9.52382 24.0358 9.37727 23.7651 9.34215 23.4698L9.33398 23.3333V15.0197C8.37201 14.771 7.51446 14.2219 6.88604 13.4523C6.25763 12.6826 5.89112 11.7326 5.83982 10.7403L5.83398 10.5V4.66667C5.83431 4.36931 5.94818 4.0833 6.15231 3.86707C6.35644 3.65084 6.63543 3.52073 6.93228 3.5033C7.22913 3.48587 7.52143 3.58245 7.74946 3.77331C7.97748 3.96416 8.12403 4.23489 8.15915 4.53017L8.16732 4.66667V10.5C8.16733 10.9096 8.27515 11.3119 8.47994 11.6666C8.68473 12.0213 8.97928 12.3159 9.33398 12.5207V4.66667C9.33431 4.36931 9.44818 4.0833 9.65231 3.86707C9.85644 3.65084 10.1354 3.52073 10.4323 3.5033C10.7291 3.48587 11.0214 3.58245 11.2495 3.77331C11.4775 3.96416 11.624 4.23489 11.6592 4.53017L11.6673 4.66667L11.6685 12.5207C11.9941 12.3325 12.2693 12.0684 12.4708 11.7509C12.6723 11.4334 12.7941 11.0719 12.8258 10.6972L12.834 10.5V4.66667C12.834 4.35725 12.9569 4.0605 13.1757 3.84171C13.3945 3.62292 13.6912 3.5 14.0007 3.5Z" fill="#19CC8B"/>
</svg>
