<svg width="28" height="28" viewBox="0 0 28 28" fill="none" xmlns="http://www.w3.org/2000/svg">
<path d="M7.13835 19.5948C6.43671 19.6976 5.28171 19.889 4.51335 19.0173C3.74499 18.1456 3.08053 16.0407 2.7885 14.1594C2.35757 11.3868 2.78522 9.04998 3.99163 7.57998C4.70257 6.71427 5.63553 6.21279 6.68991 6.13295C7.5928 6.06349 8.94194 6.41677 10.2446 8.4949C11.0605 9.79701 11.6812 11.5268 11.9476 13.2401C12.2691 15.3084 12.5825 17.5156 11.486 18.3069C10.8675 18.7537 10.4234 18.9085 9.37397 19.1584C8.511 19.3635 7.84053 19.4915 7.13835 19.5948Z" fill="#E99D2C"/>
<path d="M5.89068 21.3741L11.8456 20.1459C12.3487 20.0419 12.7523 20.3187 12.9394 21.1477C13.5529 23.869 12.6736 27.1251 9.91951 27.1251C7.31147 27.1251 5.5735 24.1523 5.28967 22.5543C5.16006 21.8297 5.3449 21.4862 5.89068 21.3741Z" fill="#E99D2C"/>
<path d="M18.6261 13.9084C17.5766 13.6596 17.1325 13.5037 16.514 13.0569C15.4175 12.2656 15.7309 10.0584 16.0525 7.99013C16.3188 6.27677 16.9395 4.54482 17.7554 3.2449C19.057 1.16677 20.4061 0.813493 21.3101 0.882946C22.3634 0.963337 23.2969 1.46373 24.0079 2.32943C25.2154 3.79943 25.643 6.13623 25.211 8.90888C24.9184 10.7901 24.2561 12.8879 23.4834 13.7668C22.7107 14.6456 21.5622 14.4471 20.8584 14.3443C20.1546 14.2415 19.4885 14.1129 18.6261 13.9084Z" fill="#E99D2C"/>
<path d="M22.1094 16.1241L16.1544 14.8959C15.6513 14.7919 15.2477 15.0687 15.0607 15.8977C14.4476 18.619 15.327 21.8751 18.0811 21.8751C20.6891 21.8751 22.4271 18.9023 22.7109 17.3043C22.84 16.5797 22.6551 16.2362 22.1094 16.1241Z" fill="#E99D2C"/>
</svg>
