<svg width="25" height="24" viewBox="0 0 25 24" fill="none" xmlns="http://www.w3.org/2000/svg">
<path d="M20.9853 3.51469C18.7188 1.24823 15.7053 0 12.5 0C9.29469 0 6.28123 1.24823 4.01469 3.51469C1.74823 5.78123 0.5 8.79469 0.5 12C0.5 15.2053 1.74823 18.2188 4.01469 20.4853C6.28123 22.7518 9.29469 24 12.5 24C15.7053 24 18.7188 22.7518 20.9853 20.4853C23.2518 18.2188 24.5 15.2053 24.5 12C24.5 8.79469 23.2518 5.78123 20.9853 3.51469ZM19.9909 4.50909C21.9918 6.51 23.0938 9.1703 23.0938 12C23.0938 14.594 22.1671 17.0452 20.4715 18.9771L17.4028 15.9084L18.3919 15.4462V8.55375L12.5 5.80017L8.95245 7.45814L5.52289 4.02858C7.4547 2.33288 9.90598 1.40625 12.5 1.40625C15.3297 1.40625 17.99 2.50819 19.9909 4.50909ZM12.5 10.6502L8.97191 9.00131L12.5 7.35239L16.0281 9.00127L12.5 10.6502ZM8.01444 10.106L11.7969 11.8738V16.319L8.01444 14.5512V10.106ZM13.2031 11.8738L16.9856 10.106V14.5512L13.2031 16.319V11.8738ZM5.00909 19.4909C3.00819 17.49 1.90625 14.8297 1.90625 12C1.90625 9.40598 2.83288 6.95475 4.52853 5.02294L7.59716 8.09156L6.60814 8.5538V15.4462L12.5 18.1998L16.0475 16.5419L19.4771 19.9714C17.5453 21.6671 15.094 22.5938 12.5 22.5938C9.6703 22.5938 7.01 21.4918 5.00909 19.4909Z" fill="#0E5676"/>
</svg>
