<svg width="28" height="28" viewBox="0 0 28 28" fill="none" xmlns="http://www.w3.org/2000/svg">
<path d="M19.8333 7.00065C21.122 7.00065 22.1667 5.95598 22.1667 4.66732C22.1667 3.37865 21.122 2.33398 19.8333 2.33398C18.5447 2.33398 17.5 3.37865 17.5 4.66732C17.5 5.95598 18.5447 7.00065 19.8333 7.00065Z" fill="#1997CF"/>
<path d="M18.4065 12.7971C18.6743 13.1962 19.0585 13.5032 19.5068 13.6765C19.9551 13.8497 20.4459 13.8808 20.9125 13.7655L24.7812 12.7983L24.2177 10.535L20.349 11.5021L18.7402 9.09063C18.3964 8.57562 17.863 8.21746 17.2562 8.0943L12.7692 7.19596C12.2672 7.09522 11.746 7.16255 11.2861 7.38754C10.8262 7.61253 10.4532 7.98267 10.2247 8.4408L8.29033 12.3095L10.3775 13.3536L12.3118 9.4838L14.6067 9.94346L8.673 19.8333H3.5V22.1666H8.673C9.48733 22.1666 10.2538 21.7326 10.6738 21.0338L12.9115 17.3051L18.942 18.5115L21.0607 24.8686L23.2727 24.1301L21.1552 17.7741C21.0245 17.3839 20.7933 17.035 20.4848 16.7626C20.1764 16.4902 19.8016 16.3039 19.3982 16.2225L15.8527 15.5143L17.92 12.068L18.4065 12.7971Z" fill="#1997CF"/>
</svg>
