<svg width="24" height="24" viewBox="0 0 24 24" fill="none" xmlns="http://www.w3.org/2000/svg">
<path opacity="0.1" fill-rule="evenodd" clip-rule="evenodd" d="M0 12C0 5.37258 5.37258 0 12 0C18.6274 0 24 5.37258 24 12C24 18.6274 18.6274 24 12 24C5.37258 24 0 18.6274 0 12Z" fill="white"/>
<path d="M14.6068 13.1408L14.9178 11.165H12.9726V9.8835C12.9726 9.34284 13.2438 8.81553 14.1151 8.81553H15V7.1335C15 7.1335 14.1973 7 13.4301 7C11.8274 7 10.7808 7.94648 10.7808 9.65922V11.165H9V13.1408H10.7808V17.9172C11.1384 17.972 11.5041 18 11.8767 18C12.2493 18 12.6151 17.972 12.9726 17.9172V13.1408H14.6068Z" fill="white"/>
</svg>
