<svg width="15" height="15" viewBox="0 0 15 15" fill="none" xmlns="http://www.w3.org/2000/svg">
<path fill-rule="evenodd" clip-rule="evenodd" d="M10.9893 9.93061C12.8221 7.57674 12.6565 4.17125 10.4926 2.00736C8.14949 -0.335787 4.3505 -0.335787 2.00736 2.00736C-0.335787 4.35051 -0.335787 8.1495 2.00736 10.4926C4.17125 12.6565 7.57674 12.8221 9.9306 10.9893C9.94076 11.0008 9.95133 11.012 9.96231 11.023L13.1443 14.205C13.4372 14.4978 13.9121 14.4978 14.205 14.205C14.4978 13.9121 14.4978 13.4372 14.205 13.1443L11.023 9.96231C11.012 9.95133 11.0008 9.94076 10.9893 9.93061ZM9.43198 3.06802C11.1893 4.82538 11.1893 7.67462 9.43198 9.43198C7.67462 11.1893 4.82538 11.1893 3.06802 9.43198C1.31066 7.67462 1.31066 4.82538 3.06802 3.06802C4.82538 1.31066 7.67462 1.31066 9.43198 3.06802Z" fill="white"/>
</svg>
