<svg width="28" height="28" viewBox="0 0 28 28" fill="none" xmlns="http://www.w3.org/2000/svg">
<path d="M22.166 8.16732H12.8327V16.334H3.49935V5.83398H1.16602V23.334H3.49935V19.834H24.4993V23.334H26.8327V12.834C26.8327 11.5963 26.341 10.4093 25.4658 9.53415C24.5907 8.65898 23.4037 8.16732 22.166 8.16732ZM8.16601 15.1673C9.09427 15.1673 9.98451 14.7986 10.6409 14.1422C11.2973 13.4858 11.666 12.5956 11.666 11.6673C11.666 10.7391 11.2973 9.84882 10.6409 9.19244C9.98451 8.53607 9.09427 8.16732 8.16601 8.16732C7.23776 8.16732 6.34752 8.53607 5.69114 9.19244C5.03476 9.84882 4.66602 10.7391 4.66602 11.6673C4.66602 12.5956 5.03476 13.4858 5.69114 14.1422C6.34752 14.7986 7.23776 15.1673 8.16601 15.1673Z" fill="#CC191F"/>
</svg>
