<svg width="134" height="65" viewBox="0 0 134 65" fill="none" xmlns="http://www.w3.org/2000/svg">
<path d="M53.8521 30.1643C49.8551 30.1643 45.8581 30.1643 41.8612 30.1643C40.7536 30.1643 40.3201 30.7903 40.7054 31.8016C42.6798 36.5691 48.1697 38.688 52.6964 36.1838C53.3224 35.8467 53.9003 35.6541 54.6226 35.7023C57.4639 35.7023 60.2569 35.7023 63.0982 35.7023C63.7724 35.7023 64.3502 35.7986 64.6873 36.4246C65.0244 37.0988 64.8318 37.6767 64.4466 38.2546C61.4127 42.685 57.1268 45.2854 51.8777 46.1522C46.0508 47.1154 40.7536 45.767 36.2268 41.9626C31.8446 38.3509 29.7257 33.5834 30.111 27.8528C30.4481 22.4111 33.0485 18.2215 37.4308 15.1394C44.6542 10.0349 54.7671 10.5646 61.4127 16.3434C65.1689 19.618 67.1433 23.8076 67.1915 28.8641C67.1915 29.8272 66.8544 30.1643 65.8431 30.1643C61.8461 30.1643 57.8491 30.1643 53.8521 30.1643ZM48.6031 23.8558C50.2885 23.8558 51.9259 23.8558 53.6113 23.8558C53.9003 23.8558 54.1892 23.9039 54.3337 23.5668C54.4782 23.1816 54.1892 22.989 53.9484 22.7963C50.7701 20.244 46.436 20.244 43.2095 22.7963C42.9688 22.989 42.728 23.1334 42.8243 23.5187C42.9688 23.9039 43.3059 23.8558 43.5948 23.8558C45.2803 23.8558 46.9657 23.8558 48.6031 23.8558Z" fill="#1997CF"/>
<path d="M112.218 11.6724C115.734 11.7205 120.212 13.2615 123.92 16.777C127.147 19.859 129.025 23.6152 129.169 28.1419C129.41 35.6543 125.895 40.9997 119.345 44.3706C112.074 48.1268 102.924 46.6821 97.1452 41.0478C89.3438 33.4391 90.6922 20.7258 99.8901 14.8025C103.213 12.7318 106.728 11.6724 112.218 11.6724ZM110.629 20.8221C106.102 20.8221 102.202 24.5783 102.202 28.9605C102.202 33.4391 106.006 37.1953 110.629 37.1953C115.252 37.1953 119.056 33.4873 119.105 29.0087C119.153 24.7709 115.396 20.9184 110.629 20.8221Z" fill="#1997CF"/>
<path d="M28.6196 34.4502C28.6196 37.6285 28.6196 40.855 28.6196 44.0334C28.6196 45.0446 28.2825 45.3817 27.2713 45.3817C24.7671 45.3817 22.3111 45.3817 19.807 45.3817C18.7957 45.3817 18.4105 44.9965 18.4105 43.9852C18.4105 37.9656 18.4105 31.9942 18.4105 25.9747C18.4105 24.9634 18.266 23.9521 17.8807 22.989C17.2547 21.6406 16.1953 20.9664 14.7024 20.8701C14.2208 20.8701 13.7874 20.8219 13.3059 20.9182C11.8612 21.159 10.9943 22.074 10.5609 23.4224C10.272 24.3373 10.1757 25.2523 10.1757 26.2154C10.1757 32.0905 10.1757 37.9656 10.1757 43.8407C10.1757 45.0446 9.83859 45.3336 8.68284 45.3336C6.22685 45.3336 3.81903 45.3336 1.36305 45.3336C0.399916 45.3336 0.0628204 44.9483 0.0628204 43.9852C0.0628204 37.6767 0.0146639 31.4164 0.110977 25.1078C0.159133 21.9295 0.929638 18.7993 3.09668 16.1989C4.92663 13.9837 7.38261 12.8761 10.1275 12.2501C13.4985 11.4796 16.8213 11.624 20.0959 12.6835C24.6708 14.1763 27.3194 17.3547 28.2344 22.0258C28.5233 23.3742 28.6196 24.7226 28.6196 26.071C28.6196 28.8641 28.6196 31.6571 28.6196 34.4502Z" fill="#1997CF"/>
<path d="M68.7812 22.9409C68.7812 15.9101 68.7812 8.92739 68.7812 1.89654C68.7812 0.837096 69.1183 0.5 70.1296 0.5C72.6338 0.5 75.1379 0.5 77.642 0.5C78.5089 0.5 78.846 0.837096 78.846 1.75207C78.846 13.3578 78.846 25.0117 78.846 36.6174C78.846 41.3367 74.6563 45.43 69.937 45.43C69.1183 45.43 68.7812 45.0448 68.7812 44.1298C68.7812 37.0989 68.7812 30.0199 68.7812 22.9409Z" fill="#1997CF"/>
<path d="M90.5504 22.8928C90.5504 29.8755 90.5504 36.8582 90.5504 43.8409C90.5504 45.0448 90.2614 45.3337 89.0575 45.3337C84.9642 45.2856 81.208 42.0591 80.582 37.9658C80.4857 37.3879 80.4375 36.81 80.4375 36.2321C80.4375 24.819 80.4375 13.4059 80.4375 1.99285C80.4375 0.788939 80.7264 0.5 81.9304 0.5C84.3382 0.5 86.7942 0.5 89.202 0.5C90.2133 0.5 90.5504 0.837096 90.5504 1.84838C90.5504 8.87923 90.5504 15.8619 90.5504 22.8928Z" fill="#1997CF"/>
<path d="M49.3763 52.3163C49.3763 51.5458 49.4244 50.7753 49.3763 50.0048C49.3763 49.5714 49.5207 49.4751 49.906 49.5233C51.1099 49.5233 52.3138 49.6196 53.4696 49.5233C55.6848 49.3306 56.7924 51.6421 56.1182 53.3758C55.6848 54.4834 54.8661 55.1094 53.6622 55.1094C52.4101 55.1094 51.1581 55.1094 49.906 55.1094C49.4244 55.1094 49.3281 54.9649 49.3281 54.5315C49.4244 53.761 49.3763 53.0387 49.3763 52.3163Z" fill="#E99D2C"/>
<path d="M48.1238 52.3162C48.1238 53.0867 48.1238 53.9054 48.1238 54.6759C48.1238 54.9648 48.0275 55.0611 47.7386 55.0611C46.342 55.0611 44.9455 55.0611 43.5489 55.0611C42.0561 55.013 40.9485 53.3756 41.2374 51.7383C41.4782 50.4863 42.4895 49.4268 43.9342 49.475C45.1863 49.5231 46.4383 49.5231 47.6904 49.475C48.0275 49.475 48.172 49.5713 48.172 49.9084C48.1238 50.727 48.1238 51.5457 48.1238 52.3162Z" fill="#1997CF"/>
<path d="M63.3411 61.3698C63.3411 60.5029 63.3411 59.588 63.3411 58.7212C63.3411 58.2878 63.5819 58.3359 63.8708 58.3359C64.1598 58.3359 64.3524 58.3359 64.3524 58.7212C64.3043 59.299 64.3524 59.9251 64.3524 60.5029C64.3524 60.84 64.4006 60.9845 64.7858 60.9845C65.46 60.9364 66.1823 60.9845 66.8565 60.9845C67.1455 60.9845 67.2418 60.8882 67.1936 60.5993C67.1936 59.9732 67.1936 59.3472 67.1936 58.7693C67.1936 58.3841 67.3381 58.2877 67.6752 58.3359C67.9641 58.3359 68.2531 58.2396 68.2531 58.7212C68.2531 60.5029 68.2531 62.2366 68.2531 64.0184C68.2531 64.4999 67.9641 64.4036 67.6752 64.4036C67.3381 64.4518 67.1936 64.3555 67.1936 63.9702C67.2418 63.3442 67.1936 62.7181 67.1936 62.1403C67.1936 61.8513 67.0973 61.755 66.8084 61.755C66.1342 61.755 65.46 61.755 64.7858 61.755C64.4487 61.755 64.3042 61.8513 64.3042 62.1884C64.3524 62.7663 64.3042 63.3442 64.3042 63.9221C64.3042 64.3073 64.2079 64.4036 63.8227 64.4036C63.3893 64.4036 63.293 64.2592 63.293 63.8739C63.3411 63.0552 63.3411 62.2366 63.3411 61.3698Z" fill="#E99D2C"/>
<path d="M123.489 60.1661C123.393 59.6364 123.634 59.54 124.067 59.54C124.452 59.54 124.5 59.6845 124.5 60.0216C124.5 61.2737 124.5 62.5739 124.5 63.826C124.5 64.0667 124.597 64.4038 124.115 64.4038C123.73 64.4038 123.345 64.452 123.489 63.7297C122.911 64.2112 122.333 64.5002 121.659 64.452C120.985 64.4038 120.407 64.1149 120.022 63.537C119.299 62.5257 119.396 60.9366 120.214 60.1179C121.081 59.3474 122.237 59.3474 123.489 60.1661ZM120.6 61.996C120.6 62.9591 121.178 63.6333 121.996 63.6333C122.863 63.6333 123.489 62.9591 123.489 61.996C123.489 61.081 122.863 60.4069 122.044 60.4069C121.226 60.4069 120.6 61.0329 120.6 61.996Z" fill="#E99D2C"/>
<path d="M78.4605 63.8739C77.0639 64.7407 75.86 64.6925 75.0895 63.6812C74.319 62.7181 74.3672 61.0808 75.1377 60.214C75.9563 59.3472 77.2084 59.299 78.4123 60.1658C78.5086 59.6361 78.7494 59.4916 79.2791 59.588C79.4717 59.6361 79.5199 59.7324 79.5199 59.8769C79.5199 61.2734 79.5199 62.7181 79.5199 64.1147C79.5199 64.4518 79.2791 64.4517 79.0865 64.4036C78.8939 64.3554 78.5086 64.6444 78.5086 64.1147C78.4605 64.0665 78.4605 63.9702 78.4605 63.8739ZM75.5711 61.9958C75.5711 62.9107 76.1971 63.5849 77.0158 63.6331C77.8826 63.6331 78.5086 62.9107 78.5086 61.9958C78.5086 61.0808 77.8344 60.4066 77.0158 60.4066C76.149 60.4066 75.5711 61.0808 75.5711 61.9958Z" fill="#E99D2C"/>
<path d="M56.4058 63.874C54.9611 64.7408 53.8053 64.6927 53.0348 63.6814C52.2643 62.7182 52.3125 61.0809 53.083 60.2141C53.9016 59.2991 55.1537 59.2991 56.3576 60.1659C56.4539 59.6362 56.6947 59.4918 57.2244 59.5881C57.4171 59.6362 57.4652 59.7325 57.4652 59.877C57.4652 61.2736 57.4652 62.7183 57.4652 64.1148C57.4652 64.4519 57.2244 64.4519 57.0318 64.4037C56.8392 64.3556 56.4539 64.6445 56.4539 64.1148C56.4058 64.0666 56.4058 63.9703 56.4058 63.874ZM53.5164 61.9959C53.5164 62.959 54.1424 63.6332 54.9611 63.6332C55.7797 63.6332 56.4058 62.959 56.4058 61.9959C56.4058 61.0809 55.7797 60.3586 54.9611 60.3586C54.1424 60.3586 53.5164 61.0328 53.5164 61.9959Z" fill="#E99D2C"/>
<path d="M99.4113 64.3555C98.4 64.4999 98.4 64.4999 98.1111 63.6331C97.9666 63.2479 97.8221 63.1034 97.3887 63.1516C97.0998 63.1997 96.8109 63.1997 96.5219 63.1516C95.7514 63.0552 95.1254 63.1997 95.0291 64.1147C94.9809 64.3555 94.1141 64.4999 94.0178 64.3555C93.9215 64.2592 94.0178 64.1628 94.0659 64.0184C94.692 62.2366 95.3662 60.4066 95.9922 58.6248C96.0885 58.3359 96.3293 58.2396 96.5701 58.2878C96.859 58.3359 97.1961 58.0951 97.3406 58.5285C98.0148 60.5029 98.689 62.4292 99.4113 64.3555ZM96.6664 59.5398C96.3293 60.5511 95.9922 61.4179 95.7033 62.3329C96.233 62.3329 96.7145 62.3329 97.1961 62.3329C97.6295 62.3329 97.6295 62.1884 97.5332 61.8513C97.1961 61.129 96.9553 60.4066 96.6664 59.5398Z" fill="#E99D2C"/>
<path d="M73.6957 63.0072C73.3104 64.0185 72.4436 64.5482 71.4323 64.5C70.2766 64.4519 69.4098 63.7777 69.169 62.6701C68.9764 61.6588 69.1208 60.6475 69.9876 59.9733C70.71 59.3954 71.9621 59.3473 72.7807 59.877C73.5994 60.3586 73.8401 61.1291 73.8401 62.0441C73.8401 62.3812 73.5994 62.3812 73.3586 62.3812C72.3955 62.3812 71.4805 62.3812 70.5174 62.3812C70.1321 62.3812 70.0358 62.5256 70.1803 62.8627C70.5174 63.6814 71.5768 63.9703 72.251 63.3924C72.877 62.9109 72.877 62.9109 73.6957 63.0072ZM71.4805 61.6107C71.8176 61.6107 72.1547 61.6107 72.4436 61.6107C72.7807 61.6107 72.8289 61.4662 72.7326 61.1772C72.5399 60.6957 72.0584 60.3586 71.4805 60.3586C70.9026 60.3586 70.4211 60.6957 70.2284 61.2254C70.1321 61.5143 70.2284 61.6107 70.5174 61.6107C70.8545 61.6107 71.1434 61.6107 71.4805 61.6107Z" fill="#E99D2C"/>
<path d="M32.3284 63.0072C31.9914 64.0185 31.1245 64.5964 30.0651 64.5482C28.9575 64.5001 28.0907 63.8259 27.8017 62.8146C27.5128 61.7551 27.8499 60.5994 28.6204 60.0697C29.4872 59.4436 30.4022 59.4436 31.3172 59.9252C32.184 60.3586 32.4248 61.1773 32.4248 62.0922C32.4248 62.4293 32.2321 62.4293 31.9914 62.4293C31.0282 62.4293 30.1133 62.4293 29.1501 62.4293C28.6686 62.4293 28.6686 62.622 28.8612 62.9591C29.1983 63.7296 30.3059 64.0666 30.8838 63.4406C31.3653 62.9591 31.7987 62.9591 32.3284 63.0072ZM30.1614 61.6107C30.4503 61.6107 30.7874 61.6107 31.0764 61.6107C31.5579 61.6588 31.5579 61.4181 31.3653 61.081C31.1245 60.5994 30.6911 60.3586 30.1614 60.3586C29.5835 60.3586 29.1983 60.5994 28.9575 61.081C28.7649 61.4662 28.8612 61.6107 29.2946 61.5625C29.5835 61.6107 29.8725 61.6107 30.1614 61.6107Z" fill="#E99D2C"/>
<path d="M87.2744 60.0695C87.6596 59.8768 87.9004 59.6842 88.2375 59.5879C89.5859 59.2989 90.6453 60.0695 90.6935 61.4178C90.7416 62.2847 90.6935 63.1515 90.6935 64.0183C90.6935 64.4517 90.4527 64.4035 90.1638 64.4035C89.8748 64.4035 89.634 64.4035 89.6822 64.0183C89.7303 63.2478 89.6822 62.4773 89.6822 61.7068C89.6822 60.8881 89.2969 60.4066 88.5746 60.3584C87.8522 60.3102 87.3707 60.7436 87.3225 61.5623C87.2744 62.381 87.2744 63.1996 87.3225 63.9701C87.3225 64.3554 87.1299 64.4035 86.8409 64.4035C86.552 64.4035 86.3594 64.4036 86.3594 63.9701C86.3594 62.092 86.3594 60.2139 86.3594 58.3358C86.3594 57.9024 86.552 57.9506 86.8409 57.9506C87.178 57.9506 87.3707 57.9987 87.3225 58.384C87.2262 58.9137 87.2744 59.4434 87.2744 60.0695Z" fill="#E99D2C"/>
<path d="M5.74609 61.9959C5.74609 60.5512 6.80554 59.4918 8.20208 59.5399C9.64677 59.5399 10.6581 60.5994 10.6581 62.044C10.6581 63.4406 9.59862 64.5 8.15392 64.5482C6.75738 64.5482 5.74609 63.4887 5.74609 61.9959ZM6.75738 61.9477C6.75738 62.959 7.23895 63.585 8.10576 63.6332C8.97258 63.6332 9.59862 63.0072 9.64677 62.044C9.64677 61.0809 9.02074 60.4067 8.20208 60.4067C7.33526 60.4067 6.75738 61.0328 6.75738 61.9477Z" fill="#E99D2C"/>
<path d="M41.1875 61.996C41.1875 60.5513 42.1988 59.54 43.5953 59.54C45.04 59.54 46.0995 60.5995 46.0995 62.0442C46.0995 63.4407 44.9919 64.5002 43.5953 64.5002C42.1506 64.5002 41.1875 63.4889 41.1875 61.996ZM42.1988 61.996C42.1988 63.0073 42.7285 63.6333 43.5472 63.6333C44.414 63.6333 45.04 62.9591 45.04 61.996C45.04 61.081 44.4621 60.4069 43.5953 60.3587C42.7767 60.3587 42.1988 60.9847 42.1988 61.996Z" fill="#E99D2C"/>
<path d="M22.936 61.3697C22.936 60.5029 22.936 59.6361 22.936 58.7692C22.936 58.5766 22.8878 58.3358 23.2249 58.3358C23.9954 58.3358 24.8141 58.2877 25.5846 58.4321C26.5959 58.6248 27.1737 59.299 27.1737 60.2139C27.1737 61.1289 26.5477 61.8031 25.5846 61.9476C25.1993 61.9957 24.7659 62.0439 24.3807 62.0439C23.9954 62.0439 23.8991 62.1884 23.8991 62.5254C23.9473 63.007 23.8991 63.5367 23.8991 64.0183C23.9473 64.4517 23.7546 64.4517 23.4175 64.4999C23.0323 64.4999 22.936 64.3554 22.936 64.0183C22.936 63.0552 22.936 62.1884 22.936 61.3697ZM23.8991 60.1176C23.8991 61.2734 23.7546 61.1289 24.6214 61.1289C25.7772 61.1289 26.1625 60.8881 26.1625 60.1176C26.1625 59.3953 25.7772 59.1545 24.6696 59.1545C23.8991 59.1545 23.8991 59.1545 23.8991 60.1176Z" fill="#E99D2C"/>
<path d="M14.9444 63.9704C14.6073 64.2112 14.3665 64.3557 14.0294 64.452C12.7292 64.7891 11.6216 64.0186 11.5253 62.6221C11.4772 61.7552 11.5253 60.8403 11.5253 59.9734C11.5253 59.54 11.8142 59.6364 12.055 59.5882C12.344 59.5882 12.5366 59.5882 12.5366 59.9734C12.5366 60.7921 12.5366 61.6108 12.5366 62.4294C12.5848 63.2481 13.1145 63.6815 13.9331 63.5852C14.5592 63.537 14.9444 63.0555 14.9444 62.3331C14.9444 61.5626 14.9926 60.7921 14.9444 60.0216C14.9444 59.5882 15.137 59.54 15.4741 59.54C15.8112 59.54 16.0039 59.5882 16.0039 60.0216C15.9557 61.3218 16.0039 62.6221 16.0039 63.9223C16.0039 64.1631 16.052 64.452 15.6668 64.4038C15.3778 64.4038 14.8963 64.6446 14.9444 63.9704Z" fill="#E99D2C"/>
<path d="M48.1711 60.0695C48.5564 59.7805 48.8935 59.5879 49.3269 59.5397C50.5789 59.3953 51.4939 60.1176 51.5421 61.3697C51.5902 62.2847 51.5421 63.1515 51.5421 64.0665C51.5421 64.548 51.205 64.4036 51.0124 64.4036C50.7234 64.4517 50.5308 64.4036 50.5308 64.0183C50.5789 63.2478 50.5308 62.4773 50.5308 61.7068C50.5308 60.84 50.0974 60.3584 49.375 60.3584C48.6527 60.3103 48.1711 60.7918 48.123 61.6586C48.0748 62.381 48.0748 63.1033 48.123 63.8257C48.123 64.2109 48.123 64.4036 47.6414 64.4036C47.1598 64.4036 47.1598 64.2109 47.1598 63.8257C47.1598 62.5736 47.1598 61.3215 47.1598 60.0695C47.1598 59.8768 47.0154 59.5397 47.4488 59.5397C47.7859 59.5879 48.1711 59.4434 48.1711 60.0695Z" fill="#E99D2C"/>
<path d="M126.908 60.0696C127.341 59.7325 127.727 59.5398 128.16 59.5398C129.364 59.4435 130.231 60.214 130.279 61.4179C130.327 62.2848 130.279 63.1516 130.279 64.0184C130.279 64.4518 130.038 64.4036 129.749 64.4036C129.46 64.4036 129.22 64.4518 129.22 64.0184C129.268 63.2479 129.22 62.4774 129.22 61.7069C129.22 60.8401 128.786 60.4067 128.064 60.3585C127.341 60.3585 126.908 60.7919 126.812 61.6106C126.764 62.3811 126.764 63.1997 126.812 63.9702C126.812 64.4036 126.619 64.4036 126.282 64.4036C125.945 64.4036 125.8 64.3555 125.8 63.9702C125.8 62.7182 125.8 61.4179 125.8 60.1659C125.8 59.9732 125.608 59.588 126.041 59.588C126.475 59.588 126.956 59.3472 126.908 60.0696Z" fill="#E99D2C"/>
<path d="M37.1921 62.959C37.4329 62.9109 37.6255 62.959 37.77 63.2961C38.0108 63.6814 38.7813 63.8259 39.1665 63.5851C39.3592 63.4888 39.4555 63.3443 39.4555 63.1035C39.4555 62.8627 39.311 62.7664 39.1184 62.6701C38.685 62.5256 38.2997 62.3812 37.8663 62.2848C36.9995 61.9959 36.6142 61.5143 36.7106 60.8883C36.7587 60.2141 37.3366 59.7326 38.2034 59.6362C39.0221 59.5399 39.7444 59.6844 40.226 60.4549C40.3704 60.6475 40.5149 60.8883 40.3223 61.1291C40.1778 61.2736 39.4555 61.1291 39.3592 60.9365C39.1184 60.4549 38.685 60.4549 38.2034 60.5031C37.9626 60.5512 37.77 60.6475 37.7218 60.9365C37.6737 61.2254 37.8182 61.3699 38.0589 61.4662C38.3479 61.5625 38.6368 61.6588 38.9258 61.7551C39.2628 61.8514 39.6481 61.9478 39.937 62.1885C40.5631 62.6219 40.6594 63.3924 40.1778 64.0185C39.3592 64.9816 37.3848 64.789 36.8069 63.6814C36.5179 63.0553 36.5661 62.959 37.1921 62.959Z" fill="#E99D2C"/>
<path d="M102.059 59.54C102.782 59.54 103.408 59.7327 103.745 60.4069C103.841 60.5995 104.082 60.9366 103.793 61.0329C103.552 61.1292 103.119 61.2737 102.878 60.8403C102.637 60.3105 102.155 60.3105 101.674 60.4069C101.433 60.455 101.289 60.5995 101.24 60.7921C101.192 61.081 101.337 61.2255 101.578 61.3218C101.867 61.4181 102.155 61.5145 102.444 61.6108C102.782 61.7071 103.167 61.8034 103.456 62.0442C104.082 62.5257 104.178 63.2962 103.648 63.9223C102.83 64.7891 100.952 64.6446 100.374 63.5852C100.277 63.3926 100.037 63.0555 100.277 62.9591C100.518 62.8628 101 62.7184 101.192 63.1036C101.529 63.6333 101.963 63.6815 102.493 63.5852C102.733 63.537 102.974 63.3926 102.974 63.1036C103.022 62.8147 102.83 62.6702 102.589 62.5739C102.252 62.4776 101.915 62.3813 101.578 62.285C100.518 61.996 100.085 61.4663 100.181 60.7439C100.326 60.0216 101.048 59.54 102.059 59.54Z" fill="#E99D2C"/>
<path d="M106.345 59.54C107.357 59.54 107.983 59.7327 108.368 60.4069C108.464 60.5995 108.657 60.9366 108.416 61.0329C108.175 61.1292 107.694 61.2737 107.501 60.8884C107.212 60.3587 106.779 60.3587 106.297 60.4069C106.056 60.455 105.864 60.5995 105.816 60.8403C105.767 61.081 105.912 61.2737 106.153 61.3218C106.442 61.4181 106.731 61.5145 107.02 61.6108C107.357 61.7071 107.742 61.8034 108.031 62.0442C108.705 62.4776 108.801 63.2962 108.272 63.8741C107.501 64.7891 105.575 64.5965 104.949 63.5852C104.804 63.3926 104.612 63.0555 104.853 62.9591C105.141 62.8628 105.575 62.6702 105.816 63.1036C106.153 63.6333 106.586 63.6333 107.116 63.537C107.357 63.4889 107.549 63.3444 107.597 63.1036C107.646 62.8147 107.453 62.6702 107.26 62.5739C106.923 62.4776 106.586 62.3813 106.249 62.285C105.19 61.996 104.756 61.4663 104.853 60.744C104.901 60.0698 105.671 59.54 106.345 59.54Z" fill="#E99D2C"/>
<path d="M112.414 62.9107C112.558 62.9107 112.799 62.8625 112.943 63.1996C113.136 63.633 113.906 63.7293 114.34 63.4886C114.532 63.3922 114.629 63.2478 114.629 63.0551C114.629 62.8144 114.484 62.6699 114.292 62.6217C113.955 62.4773 113.569 62.381 113.184 62.2846C112.173 61.9957 111.739 61.466 111.836 60.7436C111.932 60.0213 112.558 59.5397 113.569 59.4916C114.34 59.4434 114.966 59.636 115.399 60.3584C115.496 60.551 115.688 60.8881 115.447 60.9844C115.207 61.0807 114.725 61.2252 114.532 60.84C114.243 60.3102 113.81 60.3102 113.329 60.4065C113.088 60.4547 112.895 60.5992 112.895 60.84C112.895 61.0807 113.04 61.2252 113.232 61.3215C113.521 61.4178 113.81 61.5141 114.099 61.6105C114.436 61.7068 114.821 61.8031 115.11 62.0439C115.736 62.4773 115.833 63.1996 115.399 63.8257C114.629 64.8369 112.558 64.6443 111.98 63.5367C111.691 63.0551 111.739 62.9588 112.414 62.9107Z" fill="#E99D2C"/>
<path d="M2.7595 61.3215C3.19291 60.3584 3.57816 59.5397 3.96341 58.7692C4.15604 58.384 4.68576 58.1913 5.07101 58.3358C5.3118 58.4321 5.16733 58.5766 5.07101 58.7211C4.73392 59.4434 4.39682 60.1658 3.96341 60.7918C3.38554 61.7549 3.0966 62.7181 3.24107 63.8257C3.28922 64.3072 3.0966 64.4517 2.61503 64.4035C2.37425 64.3554 2.18162 64.3072 2.22978 64.0664C2.47056 62.6217 1.84453 61.3697 1.12218 60.1658C0.881397 59.7324 0.640615 59.2508 0.399832 58.7692C0.207206 58.4321 0.159049 58.2877 0.688771 58.2395C1.17034 58.2395 1.36296 58.384 1.55559 58.7692C1.94084 59.636 2.32609 60.4065 2.7595 61.3215Z" fill="#E99D2C"/>
<path d="M83.2309 61.9478C83.2309 61.5625 83.2309 61.2254 83.2309 60.8402C83.2309 60.5994 83.279 60.3105 82.8456 60.3586C82.653 60.3586 82.6048 60.2623 82.653 60.1178C82.653 59.9252 82.5567 59.6363 82.7493 59.6363C83.3272 59.6363 83.2309 59.251 83.1827 58.9621C83.1346 58.5768 83.2309 58.4324 83.6643 58.4324C84.0977 58.4324 84.2903 58.5287 84.194 58.9621C84.0977 59.4918 84.3385 59.6844 84.8682 59.5881C85.1572 59.54 85.3979 59.54 85.3979 59.9734C85.3979 60.4068 85.1572 60.4549 84.8682 60.4068C84.3385 60.3105 84.1459 60.5513 84.194 61.081C84.2422 61.707 84.2422 62.333 84.194 62.9109C84.194 63.3925 84.3866 63.6333 84.8682 63.5851C85.2053 63.5851 85.3979 63.5851 85.3979 64.0185C85.3979 64.4519 85.1572 64.4038 84.8682 64.4038C83.5198 64.4038 83.1827 64.0667 83.1827 62.7183C83.2309 62.4775 83.2309 62.2367 83.2309 61.9478Z" fill="#E99D2C"/>
<path d="M131.722 61.9478C131.722 61.5626 131.722 61.2255 131.722 60.8402C131.722 60.5513 131.722 60.3587 131.337 60.3587C131.048 60.3587 131.144 60.1179 131.144 59.9734C131.144 59.8289 131.048 59.54 131.337 59.5882C131.819 59.6363 131.722 59.2992 131.722 59.0103C131.722 58.6732 131.626 58.3361 132.204 58.3843C132.733 58.3843 132.782 58.625 132.733 59.0103C132.637 59.54 132.878 59.6363 133.36 59.5882C133.552 59.5882 133.889 59.3955 133.937 59.8289C133.986 60.166 133.937 60.455 133.456 60.3587C132.83 60.2624 132.685 60.5031 132.733 61.081C132.782 61.6589 132.782 62.2849 132.733 62.8628C132.733 63.3444 132.926 63.5851 133.408 63.537C133.745 63.4888 133.937 63.537 133.937 63.9704C133.937 64.4038 133.697 64.3556 133.408 64.3556C132.059 64.3556 131.722 64.0185 131.722 62.7183C131.722 62.4775 131.722 62.2368 131.722 61.9478Z" fill="#E99D2C"/>
<path d="M116.796 61.9477C116.796 61.6106 116.796 61.2735 116.796 60.8882C116.796 60.5993 116.844 60.3585 116.411 60.3585C116.17 60.3585 116.218 60.1659 116.218 60.0214C116.218 59.8769 116.122 59.588 116.363 59.588C116.892 59.588 116.796 59.2509 116.796 58.9138C116.748 58.5286 116.844 58.3359 117.326 58.3359C117.807 58.3359 117.904 58.5286 117.856 58.9138C117.759 59.4435 118 59.588 118.482 59.5398C118.771 59.4917 119.059 59.4917 119.059 59.9251C119.059 60.4067 118.771 60.3585 118.482 60.3104C117.952 60.2622 117.807 60.4067 117.856 60.9364C117.904 61.5624 117.904 62.1885 117.856 62.7663C117.807 63.2961 118.048 63.5368 118.53 63.4887C118.915 63.4405 119.011 63.5368 119.011 63.9702C119.011 64.3555 118.819 64.3555 118.53 64.3555C117.133 64.3555 116.796 64.0184 116.796 62.6219C116.796 62.4292 116.796 62.1885 116.796 61.9477Z" fill="#E99D2C"/>
<path d="M18.267 60.1177C18.5559 59.9251 18.7004 59.7806 18.893 59.6843C19.1338 59.588 19.3746 59.4435 19.6154 59.588C19.808 59.7324 19.6635 60.0214 19.7117 60.214C19.7599 60.4066 19.6635 60.503 19.4228 60.5511C18.5078 60.7437 18.267 60.9845 18.267 61.8995C18.267 62.5737 18.2189 63.296 18.267 63.9702C18.267 64.3555 18.0744 64.4036 17.7854 64.4036C17.4965 64.4036 17.3039 64.4036 17.3039 64.0184C17.352 62.7182 17.3039 61.4661 17.3039 60.1659C17.3039 59.9732 17.1594 59.6361 17.5447 59.588C17.8818 59.588 18.3152 59.4435 18.267 60.1177Z" fill="#E99D2C"/>
<path d="M34.5435 60.1179C34.8324 59.9252 35.0251 59.7808 35.2177 59.6844C35.8919 59.4437 36.0363 59.4437 35.9882 60.2142C35.9882 60.5031 35.8437 60.5513 35.6029 60.5513C34.8806 60.6476 34.6398 60.8402 34.5435 61.6107C34.4953 62.3812 34.4953 63.1999 34.4953 63.9704C34.4953 64.4038 34.3027 64.4038 33.9656 64.4038C33.6285 64.4038 33.4841 64.3075 33.4841 63.9704C33.4841 62.6701 33.4841 61.4181 33.4841 60.1179C33.4841 59.9252 33.3396 59.5881 33.773 59.5881C34.1582 59.5881 34.5917 59.4437 34.5435 60.1179Z" fill="#E99D2C"/>
<path d="M80.7734 61.1772C80.7734 60.2141 80.7734 59.2991 80.7734 58.336C80.7734 57.9507 80.9661 57.9026 81.255 57.9026C81.5439 57.9026 81.7366 57.9026 81.7366 58.336C81.7366 60.2141 81.7366 62.0922 81.7366 63.9703C81.7366 64.3556 81.5439 64.4037 81.255 64.4037C80.9661 64.4037 80.7734 64.4037 80.7734 63.9703C80.7734 63.0553 80.7734 62.1404 80.7734 61.1772Z" fill="#E99D2C"/>
<path d="M58.7188 61.1289C58.7188 60.2139 58.7188 59.3471 58.7188 58.4322C58.7188 58.0469 58.8151 57.9024 59.2003 57.9506C59.5374 57.9506 59.73 57.9987 59.73 58.4322C59.73 60.3102 59.73 62.1402 59.73 64.0183C59.73 64.4035 59.5856 64.4517 59.2485 64.4517C58.9114 64.4517 58.7188 64.4035 58.7188 63.9701C58.7188 63.007 58.7188 62.092 58.7188 61.1289Z" fill="#E99D2C"/>
<path d="M109.766 61.9958C109.766 61.3217 109.766 60.6475 109.766 59.9733C109.766 59.5399 110.006 59.588 110.295 59.588C110.584 59.588 110.777 59.6362 110.777 59.9733C110.777 61.3217 110.777 62.7182 110.777 64.0666C110.777 64.4518 110.536 64.4037 110.295 64.4037C110.055 64.4037 109.814 64.4518 109.814 64.0666C109.766 63.3924 109.766 62.67 109.766 61.9958Z" fill="#E99D2C"/>
<path d="M110.196 57.71C110.678 57.71 110.871 57.9507 110.871 58.336C110.871 58.7213 110.63 58.962 110.245 58.962C109.859 58.962 109.57 58.7213 109.619 58.336C109.619 57.9507 109.859 57.71 110.196 57.71Z" fill="#E99D2C"/>
</svg>
