<svg width="72" height="34" viewBox="0 0 72 34" fill="none" xmlns="http://www.w3.org/2000/svg">
<path d="M28.5737 15.7591C26.4503 15.7591 24.3269 15.7591 22.2035 15.7591C21.615 15.7591 21.3848 16.0917 21.5895 16.6289C22.6384 19.1617 25.5549 20.2873 27.9597 18.957C28.2922 18.7779 28.5992 18.6756 28.983 18.7012C30.4924 18.7012 31.9762 18.7012 33.4856 18.7012C33.8438 18.7012 34.1508 18.7523 34.3299 19.0849C34.509 19.4431 34.4066 19.7501 34.202 20.0571C32.5902 22.4107 30.3133 23.7922 27.5248 24.2527C24.4292 24.7644 21.615 24.048 19.2102 22.027C16.8822 20.1082 15.7565 17.5755 15.9612 14.5311C16.1403 11.6402 17.5217 9.41448 19.8498 7.77716C23.6873 5.06535 29.0597 5.34676 32.5902 8.41674C34.5857 10.1564 35.6346 12.3821 35.6602 15.0684C35.6602 15.58 35.4811 15.7591 34.9439 15.7591C32.8205 15.7591 30.6971 15.7591 28.5737 15.7591ZM25.7851 12.4077C26.6805 12.4077 27.5503 12.4077 28.4457 12.4077C28.5992 12.4077 28.7527 12.4333 28.8295 12.2542C28.9062 12.0495 28.7527 11.9472 28.6248 11.8449C26.9363 10.489 24.6339 10.489 22.9198 11.8449C22.7919 11.9472 22.664 12.024 22.7151 12.2286C22.7919 12.4333 22.971 12.4077 23.1245 12.4077C24.0199 12.4077 24.9153 12.4077 25.7851 12.4077Z" fill="white"/>
<path d="M59.5811 5.93555C61.4487 5.96113 63.8279 6.77979 65.7978 8.64736C67.5119 10.2847 68.5096 12.2802 68.5864 14.685C68.7143 18.676 66.8467 21.5157 63.3674 23.3065C59.5044 25.302 54.6436 24.5345 51.5736 21.5413C47.4291 17.4991 48.1454 10.7452 53.0318 7.59845C54.7971 6.49838 56.6646 5.93555 59.5811 5.93555ZM58.7369 10.7963C56.332 10.7963 54.2598 12.7918 54.2598 15.1199C54.2598 17.4991 56.2809 19.4946 58.7369 19.4946C61.1929 19.4946 63.2139 17.5247 63.2395 15.1455C63.2651 12.8942 61.2696 10.8475 58.7369 10.7963Z" fill="white"/>
<path d="M15.1694 18.0362C15.1694 19.7247 15.1694 21.4388 15.1694 23.1273C15.1694 23.6645 14.9903 23.8436 14.4531 23.8436C13.1227 23.8436 11.818 23.8436 10.4877 23.8436C9.95043 23.8436 9.74576 23.639 9.74576 23.1017C9.74576 19.9038 9.74576 16.7315 9.74576 13.5336C9.74576 12.9964 9.66901 12.4591 9.46435 11.9475C9.13177 11.2311 8.56894 10.873 7.77586 10.8218C7.52003 10.8218 7.28978 10.7962 7.03395 10.8474C6.26645 10.9753 5.80596 11.4614 5.57571 12.1777C5.42221 12.6638 5.37104 13.1499 5.37104 13.6615C5.37104 16.7827 5.37104 19.9038 5.37104 23.025C5.37104 23.6645 5.19196 23.818 4.57797 23.818C3.27323 23.818 1.99407 23.818 0.689328 23.818C0.177665 23.818 -0.00141671 23.6134 -0.00141671 23.1017C-0.00141671 19.7503 -0.0269999 16.4245 0.0241664 13.0731C0.0497496 11.3846 0.45908 9.72172 1.61032 8.34023C2.58248 7.1634 3.88722 6.57499 5.34546 6.24241C7.13628 5.83308 8.90152 5.90983 10.6412 6.47266C13.0716 7.26574 14.4786 8.95423 14.9647 11.4358C15.1182 12.1521 15.1694 12.8684 15.1694 13.5848C15.1694 15.0686 15.1694 16.5524 15.1694 18.0362Z" fill="white"/>
<path d="M36.5039 11.9217C36.5039 8.18661 36.5039 4.47705 36.5039 0.741911C36.5039 0.179082 36.683 0 37.2202 0C38.5506 0 39.8809 0 41.2112 0C41.6717 0 41.8508 0.179082 41.8508 0.665162C41.8508 6.8307 41.8508 13.0218 41.8508 19.1874C41.8508 21.6945 39.6251 23.8691 37.1179 23.8691C36.683 23.8691 36.5039 23.6644 36.5039 23.1783C36.5039 19.4432 36.5039 15.6825 36.5039 11.9217Z" fill="white"/>
<path d="M48.0678 11.8962C48.0678 15.6057 48.0678 19.3153 48.0678 23.0248C48.0678 23.6644 47.9143 23.8179 47.2747 23.8179C45.1001 23.7923 43.1046 22.0783 42.7721 19.9037C42.7209 19.5967 42.6953 19.2897 42.6953 18.9827C42.6953 12.9195 42.6953 6.85628 42.6953 0.793078C42.6953 0.153499 42.8488 0 43.4884 0C44.7675 0 46.0723 0 47.3514 0C47.8887 0 48.0678 0.179082 48.0678 0.716328C48.0678 4.45147 48.0678 8.16102 48.0678 11.8962Z" fill="white"/>
<path d="M26.1975 27.5274C26.1975 27.1181 26.223 26.7088 26.1975 26.2994C26.1975 26.0692 26.2742 26.018 26.4789 26.0436C27.1185 26.0436 27.758 26.0948 28.372 26.0436C29.5489 25.9413 30.1373 27.1693 29.7791 28.0902C29.5489 28.6787 29.1139 29.0112 28.4744 29.0112C27.8092 29.0112 27.144 29.0112 26.4789 29.0112C26.223 29.0112 26.1719 28.9345 26.1719 28.7042C26.223 28.2949 26.1975 27.9112 26.1975 27.5274Z" fill="#E99D2C"/>
<path d="M25.5305 27.5273C25.5305 27.9367 25.5305 28.3716 25.5305 28.7809C25.5305 28.9344 25.4793 28.9856 25.3258 28.9856C24.5839 28.9856 23.842 28.9856 23.1001 28.9856C22.307 28.96 21.7186 28.0902 21.8721 27.2203C22 26.5552 22.5373 25.9923 23.3048 26.0179C23.9699 26.0435 24.6351 26.0435 25.3003 26.0179C25.4793 26.0179 25.5561 26.0691 25.5561 26.2482C25.5305 26.6831 25.5305 27.118 25.5305 27.5273Z" fill="white"/>
<path d="M33.6154 32.3371C33.6154 31.8766 33.6154 31.3905 33.6154 30.93C33.6154 30.6997 33.7433 30.7253 33.8968 30.7253C34.0503 30.7253 34.1527 30.7253 34.1527 30.93C34.1271 31.237 34.1527 31.5696 34.1527 31.8766C34.1527 32.0556 34.1783 32.1324 34.3829 32.1324C34.7411 32.1068 35.1248 32.1324 35.483 32.1324C35.6365 32.1324 35.6877 32.0812 35.6621 31.9277C35.6621 31.5951 35.6621 31.2626 35.6621 30.9556C35.6621 30.7509 35.7388 30.6997 35.9179 30.7253C36.0714 30.7253 36.2249 30.6742 36.2249 30.93C36.2249 31.8766 36.2249 32.7975 36.2249 33.7441C36.2249 34 36.0714 33.9488 35.9179 33.9488C35.7388 33.9744 35.6621 33.9232 35.6621 33.7185C35.6877 33.386 35.6621 33.0534 35.6621 32.7464C35.6621 32.5929 35.6109 32.5417 35.4574 32.5417C35.0992 32.5417 34.7411 32.5417 34.3829 32.5417C34.2038 32.5417 34.1271 32.5929 34.1271 32.772C34.1527 33.079 34.1271 33.386 34.1271 33.693C34.1271 33.8976 34.0759 33.9488 33.8713 33.9488C33.641 33.9488 33.5898 33.872 33.5898 33.6674C33.6154 33.2325 33.6154 32.7976 33.6154 32.3371Z" fill="#E99D2C"/>
<path d="M65.5693 31.6973C65.5181 31.4159 65.646 31.3647 65.8763 31.3647C66.0809 31.3647 66.1065 31.4415 66.1065 31.6206C66.1065 32.2857 66.1065 32.9765 66.1065 33.6416C66.1065 33.7696 66.1577 33.9486 65.9018 33.9486C65.6972 33.9486 65.4925 33.9742 65.5693 33.5905C65.2623 33.8463 64.9553 33.9998 64.5971 33.9742C64.2389 33.9486 63.9319 33.7951 63.7273 33.4881C63.3435 32.9509 63.3947 32.1067 63.8296 31.6717C64.2901 31.2624 64.9041 31.2624 65.5693 31.6973ZM64.0343 32.6695C64.0343 33.1812 64.3413 33.5393 64.7762 33.5393C65.2367 33.5393 65.5693 33.1812 65.5693 32.6695C65.5693 32.1834 65.2367 31.8252 64.8018 31.8252C64.3669 31.8252 64.0343 32.1578 64.0343 32.6695Z" fill="#E99D2C"/>
<path d="M41.6478 33.6675C40.9059 34.128 40.2663 34.1024 39.857 33.5652C39.4477 33.0535 39.4733 32.1837 39.8826 31.7232C40.3175 31.2627 40.9827 31.2371 41.6222 31.6976C41.6734 31.4162 41.8013 31.3394 42.0827 31.3906C42.1851 31.4162 42.2106 31.4673 42.2106 31.5441C42.2106 32.286 42.2106 33.0535 42.2106 33.7954C42.2106 33.9745 42.0827 33.9745 41.9804 33.9489C41.8781 33.9233 41.6734 34.0768 41.6734 33.7954C41.6478 33.7698 41.6478 33.7187 41.6478 33.6675ZM40.1128 32.6697C40.1128 33.1558 40.4454 33.514 40.8803 33.5396C41.3408 33.5396 41.6734 33.1558 41.6734 32.6697C41.6734 32.1837 41.3152 31.8255 40.8803 31.8255C40.4198 31.8255 40.1128 32.1837 40.1128 32.6697Z" fill="#E99D2C"/>
<path d="M29.9291 33.6676C29.1616 34.1281 28.5476 34.1025 28.1383 33.5653C27.7289 33.0536 27.7545 32.1838 28.1638 31.7233C28.5988 31.2372 29.2639 31.2372 29.9035 31.6977C29.9547 31.4163 30.0826 31.3395 30.364 31.3907C30.4663 31.4163 30.4919 31.4675 30.4919 31.5442C30.4919 32.2861 30.4919 33.0536 30.4919 33.7955C30.4919 33.9746 30.364 33.9746 30.2617 33.949C30.1593 33.9234 29.9547 34.0769 29.9547 33.7955C29.9291 33.7699 29.9291 33.7188 29.9291 33.6676ZM28.3941 32.6699C28.3941 33.1815 28.7267 33.5397 29.1616 33.5397C29.5965 33.5397 29.9291 33.1815 29.9291 32.6699C29.9291 32.1838 29.5965 31.8 29.1616 31.8C28.7267 31.8 28.3941 32.1582 28.3941 32.6699Z" fill="#E99D2C"/>
<path d="M52.7778 33.9233C52.2406 34 52.2406 34 52.0871 33.5395C52.0103 33.3349 51.9336 33.2581 51.7033 33.2837C51.5498 33.3093 51.3963 33.3093 51.2428 33.2837C50.8335 33.2325 50.5009 33.3093 50.4498 33.7954C50.4242 33.9233 49.9637 34 49.9125 33.9233C49.8614 33.8721 49.9125 33.8209 49.9381 33.7442C50.2707 32.7976 50.6288 31.8255 50.9614 30.8789C51.0126 30.7254 51.1405 30.6742 51.2684 30.6998C51.4219 30.7254 51.601 30.5975 51.6778 30.8277C52.0359 31.8766 52.3941 32.9 52.7778 33.9233ZM51.3196 31.365C51.1405 31.9022 50.9614 32.3627 50.8079 32.8488C51.0893 32.8488 51.3452 32.8488 51.601 32.8488C51.8313 32.8488 51.8313 32.772 51.7801 32.593C51.601 32.2092 51.4731 31.8255 51.3196 31.365Z" fill="#E99D2C"/>
<path d="M39.1167 33.2071C38.912 33.7443 38.4515 34.0257 37.9143 34.0001C37.3003 33.9746 36.8398 33.6164 36.7118 33.028C36.6095 32.4907 36.6863 31.9535 37.1468 31.5953C37.5305 31.2883 38.1957 31.2627 38.6306 31.5442C39.0655 31.8 39.1934 32.2093 39.1934 32.6954C39.1934 32.8745 39.0655 32.8745 38.9376 32.8745C38.4259 32.8745 37.9398 32.8745 37.4282 32.8745C37.2235 32.8745 37.1723 32.9512 37.2491 33.1303C37.4282 33.5652 37.991 33.7187 38.3492 33.4117C38.6817 33.1559 38.6817 33.1559 39.1167 33.2071ZM37.9398 32.4651C38.1189 32.4651 38.298 32.4651 38.4515 32.4651C38.6306 32.4651 38.6562 32.3884 38.605 32.2349C38.5027 31.9791 38.2468 31.8 37.9398 31.8C37.6328 31.8 37.377 31.9791 37.2747 32.2605C37.2235 32.414 37.2747 32.4651 37.4282 32.4651C37.6073 32.4651 37.7608 32.4651 37.9398 32.4651Z" fill="#E99D2C"/>
<path d="M17.139 33.2068C16.9599 33.744 16.4994 34.051 15.9366 34.0254C15.3481 33.9998 14.8877 33.6417 14.7342 33.1044C14.5807 32.5416 14.7597 31.9276 15.1691 31.6462C15.6296 31.3136 16.1156 31.3136 16.6017 31.5695C17.0622 31.7997 17.1901 32.2346 17.1901 32.7207C17.1901 32.8998 17.0878 32.8998 16.9599 32.8998C16.4482 32.8998 15.9621 32.8998 15.4505 32.8998C15.1946 32.8998 15.1946 33.0021 15.297 33.1812C15.4761 33.5905 16.0645 33.7696 16.3715 33.437C16.6273 33.1812 16.8576 33.1812 17.139 33.2068ZM15.9877 32.4649C16.1412 32.4649 16.3203 32.4649 16.4738 32.4649C16.7296 32.4904 16.7296 32.3625 16.6273 32.1834C16.4994 31.9276 16.2691 31.7997 15.9877 31.7997C15.6807 31.7997 15.4761 31.9276 15.3481 32.1834C15.2458 32.3881 15.297 32.4649 15.5272 32.4393C15.6807 32.4649 15.8342 32.4649 15.9877 32.4649Z" fill="#E99D2C"/>
<path d="M46.3298 31.6465C46.5345 31.5442 46.6624 31.4419 46.8415 31.3907C47.5578 31.2372 48.1207 31.6465 48.1462 32.3629C48.1718 32.8234 48.1462 33.2838 48.1462 33.7443C48.1462 33.9746 48.0183 33.949 47.8648 33.949C47.7113 33.949 47.5834 33.949 47.609 33.7443C47.6346 33.335 47.609 32.9257 47.609 32.5164C47.609 32.0814 47.4043 31.8256 47.0206 31.8C46.6368 31.7744 46.381 32.0047 46.3554 32.4396C46.3298 32.8745 46.3298 33.3094 46.3554 33.7188C46.3554 33.9234 46.2531 33.949 46.0996 33.949C45.9461 33.949 45.8438 33.949 45.8438 33.7188C45.8438 32.721 45.8438 31.7233 45.8438 30.7255C45.8438 30.4953 45.9461 30.5209 46.0996 30.5209C46.2787 30.5209 46.381 30.5464 46.3554 30.7511C46.3042 31.0325 46.3298 31.3139 46.3298 31.6465Z" fill="#E99D2C"/>
<path d="M3.01562 32.6698C3.01562 31.9023 3.57845 31.3395 4.32037 31.3651C5.08786 31.3651 5.62511 31.9279 5.62511 32.6954C5.62511 33.4373 5.06228 34.0001 4.29478 34.0257C3.55287 34.0257 3.01562 33.4629 3.01562 32.6698ZM3.55287 32.6442C3.55287 33.1815 3.8087 33.5141 4.2692 33.5397C4.7297 33.5397 5.06228 33.2071 5.08786 32.6954C5.08786 32.1838 4.75528 31.8256 4.32037 31.8256C3.85987 31.8256 3.55287 32.1582 3.55287 32.6442Z" fill="#E99D2C"/>
<path d="M21.8477 32.6695C21.8477 31.902 22.3849 31.3647 23.1268 31.3647C23.8943 31.3647 24.4571 31.9276 24.4571 32.6951C24.4571 33.437 23.8687 33.9998 23.1268 33.9998C22.3593 33.9998 21.8477 33.4626 21.8477 32.6695ZM22.3849 32.6695C22.3849 33.2067 22.6663 33.5393 23.1012 33.5393C23.5617 33.5393 23.8943 33.1812 23.8943 32.6695C23.8943 32.1834 23.5873 31.8252 23.1268 31.7997C22.6919 31.7997 22.3849 32.1322 22.3849 32.6695Z" fill="#E99D2C"/>
<path d="M12.1497 32.337C12.1497 31.8765 12.1497 31.416 12.1497 30.9555C12.1497 30.8532 12.1241 30.7253 12.3032 30.7253C12.7125 30.7253 13.1474 30.6997 13.5568 30.7765C14.094 30.8788 14.401 31.2369 14.401 31.723C14.401 32.2091 14.0684 32.5673 13.5568 32.644C13.3521 32.6696 13.1219 32.6952 12.9172 32.6952C12.7125 32.6952 12.6614 32.7719 12.6614 32.951C12.6869 33.2069 12.6614 33.4883 12.6614 33.7441C12.6869 33.9743 12.5846 33.9743 12.4055 33.9999C12.2009 33.9999 12.1497 33.9232 12.1497 33.7441C12.1497 33.2324 12.1497 32.7719 12.1497 32.337ZM12.6614 31.6719C12.6614 32.2859 12.5846 32.2091 13.0451 32.2091C13.6591 32.2091 13.8638 32.0812 13.8638 31.6719C13.8638 31.2881 13.6591 31.1602 13.0707 31.1602C12.6614 31.1602 12.6614 31.1602 12.6614 31.6719Z" fill="#E99D2C"/>
<path d="M7.90199 33.7184C7.72291 33.8463 7.59499 33.9231 7.41591 33.9742C6.72517 34.1533 6.13676 33.744 6.08559 33.0021C6.06001 32.5416 6.08559 32.0555 6.08559 31.595C6.08559 31.3647 6.23909 31.4159 6.367 31.3903C6.5205 31.3903 6.62283 31.3903 6.62283 31.595C6.62283 32.0299 6.62283 32.4648 6.62283 32.8997C6.64842 33.3347 6.92983 33.5649 7.36475 33.5137C7.69733 33.4881 7.90199 33.2323 7.90199 32.8486C7.90199 32.4392 7.92757 32.0299 7.90199 31.6206C7.90199 31.3903 8.00432 31.3647 8.18341 31.3647C8.36249 31.3647 8.46482 31.3903 8.46482 31.6206C8.43924 32.3113 8.46482 33.0021 8.46482 33.6928C8.46482 33.8207 8.4904 33.9742 8.28574 33.9486C8.13224 33.9486 7.87641 34.0766 7.90199 33.7184Z" fill="#E99D2C"/>
<path d="M25.5573 31.6461C25.762 31.4926 25.9411 31.3903 26.1713 31.3647C26.8365 31.2879 27.3226 31.6717 27.3482 32.3368C27.3737 32.8229 27.3482 33.2834 27.3482 33.7695C27.3482 34.0253 27.1691 33.9486 27.0667 33.9486C26.9132 33.9742 26.8109 33.9486 26.8109 33.7439C26.8365 33.3346 26.8109 32.9253 26.8109 32.5159C26.8109 32.0554 26.5807 31.7996 26.1969 31.7996C25.8132 31.774 25.5573 32.0298 25.5318 32.4903C25.5062 32.8741 25.5062 33.2578 25.5318 33.6416C25.5318 33.8462 25.5318 33.9486 25.2759 33.9486C25.0201 33.9486 25.0201 33.8462 25.0201 33.6416C25.0201 32.9764 25.0201 32.3113 25.0201 31.6461C25.0201 31.5438 24.9433 31.3647 25.1736 31.3647C25.3527 31.3903 25.5573 31.3135 25.5573 31.6461Z" fill="#E99D2C"/>
<path d="M67.3845 31.6466C67.6148 31.4675 67.8194 31.3651 68.0497 31.3651C68.6893 31.314 69.1497 31.7233 69.1753 32.3629C69.2009 32.8234 69.1753 33.2839 69.1753 33.7444C69.1753 33.9746 69.0474 33.949 68.8939 33.949C68.7404 33.949 68.6125 33.9746 68.6125 33.7444C68.6381 33.335 68.6125 32.9257 68.6125 32.5164C68.6125 32.0559 68.3822 31.8256 67.9985 31.8001C67.6148 31.8001 67.3845 32.0303 67.3333 32.4652C67.3078 32.8745 67.3078 33.3095 67.3333 33.7188C67.3333 33.949 67.231 33.949 67.0519 33.949C66.8728 33.949 66.7961 33.9235 66.7961 33.7188C66.7961 33.0536 66.7961 32.3629 66.7961 31.6977C66.7961 31.5954 66.6938 31.3907 66.924 31.3907C67.1543 31.3907 67.4101 31.2628 67.3845 31.6466Z" fill="#E99D2C"/>
<path d="M19.7247 33.1811C19.8527 33.1555 19.955 33.1811 20.0317 33.3602C20.1597 33.5648 20.569 33.6416 20.7737 33.5137C20.876 33.4625 20.9272 33.3858 20.9272 33.2578C20.9272 33.1299 20.8504 33.0788 20.7481 33.0276C20.5178 32.9509 20.3132 32.8741 20.0829 32.8229C19.6224 32.6694 19.4177 32.4136 19.4689 32.081C19.4945 31.7229 19.8015 31.467 20.262 31.4159C20.6969 31.3647 21.0807 31.4415 21.3365 31.8508C21.4132 31.9531 21.49 32.081 21.3877 32.2089C21.3109 32.2857 20.9272 32.2089 20.876 32.1066C20.7481 31.8508 20.5178 31.8508 20.262 31.8764C20.1341 31.9019 20.0317 31.9531 20.0062 32.1066C19.9806 32.2601 20.0573 32.3369 20.1852 32.388C20.3387 32.4392 20.4922 32.4904 20.6457 32.5415C20.8248 32.5927 21.0295 32.6439 21.183 32.7718C21.5156 33.002 21.5667 33.4113 21.3109 33.7439C20.876 34.2556 19.8271 34.1533 19.5201 33.5648C19.3666 33.2323 19.3922 33.1811 19.7247 33.1811Z" fill="#E99D2C"/>
<path d="M54.1844 31.3647C54.5681 31.3647 54.9007 31.4671 55.0798 31.8252C55.131 31.9276 55.2589 32.1067 55.1054 32.1578C54.9774 32.209 54.7472 32.2857 54.6193 32.0555C54.4914 31.7741 54.2355 31.7741 53.9797 31.8252C53.8518 31.8508 53.775 31.9276 53.7495 32.0299C53.7239 32.1834 53.8006 32.2602 53.9285 32.3113C54.082 32.3625 54.2355 32.4137 54.389 32.4648C54.5681 32.516 54.7728 32.5672 54.9263 32.6951C55.2589 32.9509 55.31 33.3602 55.0286 33.6928C54.5937 34.1533 53.596 34.0766 53.289 33.5137C53.2378 33.4114 53.1099 33.2323 53.2378 33.1811C53.3657 33.13 53.6215 33.0532 53.7239 33.2579C53.903 33.5393 54.1332 33.5649 54.4146 33.5137C54.5425 33.4881 54.6705 33.4114 54.6705 33.2579C54.696 33.1044 54.5937 33.0276 54.4658 32.9765C54.2867 32.9253 54.1076 32.8742 53.9285 32.823C53.3657 32.6695 53.1355 32.3881 53.1866 32.0043C53.2634 31.6206 53.6471 31.3647 54.1844 31.3647Z" fill="#E99D2C"/>
<path d="M56.4592 31.3647C56.9965 31.3647 57.329 31.4671 57.5337 31.8252C57.5849 31.9276 57.6872 32.1067 57.5593 32.1578C57.4314 32.209 57.1756 32.2857 57.0732 32.0811C56.9197 31.7997 56.6895 31.7997 56.4336 31.8252C56.3057 31.8508 56.2034 31.9276 56.1778 32.0555C56.1522 32.1834 56.229 32.2857 56.3569 32.3113C56.5104 32.3625 56.6639 32.4137 56.8174 32.4648C56.9965 32.516 57.2011 32.5672 57.3546 32.6951C57.7128 32.9253 57.764 33.3602 57.4825 33.6672C57.0732 34.1533 56.0499 34.051 55.7173 33.5137C55.6406 33.4114 55.5382 33.2323 55.6662 33.1811C55.8197 33.13 56.0499 33.0277 56.1778 33.2579C56.3569 33.5393 56.5871 33.5393 56.8686 33.4881C56.9965 33.4626 57.0988 33.3858 57.1244 33.2579C57.15 33.1044 57.0476 33.0277 56.9453 32.9765C56.7662 32.9253 56.5871 32.8742 56.4081 32.823C55.8452 32.6695 55.615 32.3881 55.6662 32.0043C55.6917 31.6462 56.1011 31.3647 56.4592 31.3647Z" fill="#E99D2C"/>
<path d="M59.6826 33.1555C59.7593 33.1555 59.8873 33.13 59.964 33.309C60.0663 33.5393 60.4757 33.5905 60.7059 33.4625C60.8082 33.4114 60.8594 33.3346 60.8594 33.2323C60.8594 33.1044 60.7827 33.0276 60.6803 33.002C60.5012 32.9253 60.2966 32.8741 60.0919 32.823C59.5547 32.6695 59.3244 32.3881 59.3756 32.0043C59.4268 31.6206 59.7593 31.3647 60.2966 31.3391C60.7059 31.3136 61.0385 31.4159 61.2687 31.7996C61.3199 31.902 61.4222 32.0811 61.2943 32.1322C61.1664 32.1834 60.9106 32.2601 60.8082 32.0555C60.6547 31.7741 60.4245 31.7741 60.1687 31.8252C60.0408 31.8508 59.9384 31.9276 59.9384 32.0555C59.9384 32.1834 60.0152 32.2601 60.1175 32.3113C60.271 32.3625 60.4245 32.4136 60.578 32.4648C60.7571 32.516 60.9617 32.5671 61.1152 32.695C61.4478 32.9253 61.499 33.309 61.2687 33.6416C60.8594 34.1789 59.7593 34.0765 59.4523 33.4881C59.2988 33.2323 59.3244 33.1811 59.6826 33.1555Z" fill="#E99D2C"/>
<path d="M1.43034 32.3116C1.66059 31.8 1.86525 31.3651 2.06992 30.9557C2.17225 30.7511 2.45367 30.6487 2.65833 30.7255C2.78625 30.7766 2.7095 30.8534 2.65833 30.9301C2.47925 31.3139 2.30017 31.6976 2.06992 32.0302C1.76292 32.5419 1.60942 33.0535 1.68617 33.642C1.71176 33.8978 1.60942 33.9745 1.35359 33.949C1.22568 33.9234 1.12334 33.8978 1.14893 33.7699C1.27684 33.0024 0.944261 32.3372 0.560513 31.6976C0.432598 31.4674 0.304682 31.2116 0.176766 30.9557C0.0744337 30.7766 0.0488505 30.6999 0.330265 30.6743C0.586097 30.6743 0.688429 30.7511 0.790762 30.9557C0.995427 31.4162 1.20009 31.8256 1.43034 32.3116Z" fill="#E99D2C"/>
<path d="M44.1792 32.6439C44.1792 32.4393 44.1792 32.2602 44.1792 32.0555C44.1792 31.9276 44.2047 31.7741 43.9745 31.7997C43.8722 31.7997 43.8466 31.7485 43.8722 31.6718C43.8722 31.5694 43.821 31.4159 43.9233 31.4159C44.2303 31.4159 44.1792 31.2113 44.1536 31.0578C44.128 30.8531 44.1792 30.7764 44.4094 30.7764C44.6397 30.7764 44.742 30.8275 44.6908 31.0578C44.6397 31.3392 44.7676 31.4415 45.049 31.3904C45.2025 31.3648 45.3304 31.3648 45.3304 31.595C45.3304 31.8253 45.2025 31.8509 45.049 31.8253C44.7676 31.7741 44.6653 31.902 44.6908 32.1834C44.7164 32.516 44.7164 32.8486 44.6908 33.1556C44.6908 33.4114 44.7932 33.5393 45.049 33.5138C45.2281 33.5138 45.3304 33.5138 45.3304 33.744C45.3304 33.9743 45.2025 33.9487 45.049 33.9487C44.3327 33.9487 44.1536 33.7696 44.1536 33.0533C44.1792 32.9253 44.1792 32.7974 44.1792 32.6439Z" fill="#E99D2C"/>
<path d="M69.9441 32.6441C69.9441 32.4395 69.9441 32.2604 69.9441 32.0557C69.9441 31.9022 69.9441 31.7999 69.7394 31.7999C69.5859 31.7999 69.6371 31.672 69.6371 31.5952C69.6371 31.5185 69.5859 31.365 69.7394 31.3906C69.9953 31.4161 69.9441 31.2371 69.9441 31.0836C69.9441 30.9045 69.8929 30.7254 70.1999 30.751C70.4813 30.751 70.5069 30.8789 70.4813 31.0836C70.4302 31.365 70.5581 31.4161 70.8139 31.3906C70.9162 31.3906 71.0953 31.2882 71.1209 31.5185C71.1465 31.6976 71.1209 31.8511 70.8651 31.7999C70.5325 31.7487 70.4558 31.8766 70.4813 32.1836C70.5069 32.4906 70.5069 32.8232 70.4813 33.1302C70.4813 33.386 70.5837 33.514 70.8395 33.4884C71.0186 33.4628 71.1209 33.4884 71.1209 33.7186C71.1209 33.9489 70.993 33.9233 70.8395 33.9233C70.1232 33.9233 69.9441 33.7442 69.9441 33.0535C69.9441 32.9255 69.9441 32.7976 69.9441 32.6441Z" fill="#E99D2C"/>
<path d="M62.0124 32.6443C62.0124 32.4652 62.0124 32.2862 62.0124 32.0815C62.0124 31.928 62.038 31.8001 61.8078 31.8001C61.6798 31.8001 61.7054 31.6977 61.7054 31.621C61.7054 31.5442 61.6543 31.3907 61.7822 31.3907C62.0636 31.3907 62.0124 31.2117 62.0124 31.0326C61.9868 30.8279 62.038 30.7256 62.2938 30.7256C62.5497 30.7256 62.6008 30.8279 62.5752 31.0326C62.5241 31.314 62.652 31.3907 62.9078 31.3652C63.0613 31.3396 63.2148 31.3396 63.2148 31.5698C63.2148 31.8257 63.0613 31.8001 62.9078 31.7745C62.6264 31.7489 62.5497 31.8257 62.5752 32.1071C62.6008 32.4397 62.6008 32.7722 62.5752 33.0792C62.5497 33.3606 62.6776 33.4886 62.9334 33.463C63.1381 33.4374 63.1892 33.4886 63.1892 33.7188C63.1892 33.9235 63.0869 33.9235 62.9334 33.9235C62.1915 33.9235 62.0124 33.7444 62.0124 33.0025C62.0124 32.9001 62.0124 32.7722 62.0124 32.6443Z" fill="#E99D2C"/>
<path d="M9.67029 31.6718C9.82379 31.5695 9.90054 31.4927 10.0029 31.4415C10.1308 31.3904 10.2587 31.3136 10.3866 31.3904C10.4889 31.4671 10.4122 31.6206 10.4378 31.723C10.4634 31.8253 10.4122 31.8765 10.2843 31.902C9.79821 32.0044 9.67029 32.1323 9.67029 32.6184C9.67029 32.9765 9.64471 33.3603 9.67029 33.7185C9.67029 33.9231 9.56796 33.9487 9.41446 33.9487C9.26096 33.9487 9.15863 33.9487 9.15863 33.744C9.18421 33.0533 9.15863 32.3881 9.15863 31.6974C9.15863 31.595 9.08188 31.416 9.28654 31.3904C9.46563 31.3904 9.69587 31.3136 9.67029 31.6718Z" fill="#E99D2C"/>
<path d="M18.3173 31.6717C18.4708 31.5694 18.5731 31.4927 18.6755 31.4415C19.0336 31.3136 19.1104 31.3136 19.0848 31.7229C19.0848 31.8764 19.008 31.902 18.8801 31.902C18.4964 31.9532 18.3685 32.0555 18.3173 32.4648C18.2917 32.8742 18.2917 33.3091 18.2917 33.7184C18.2917 33.9486 18.1894 33.9486 18.0103 33.9486C17.8312 33.9486 17.7545 33.8975 17.7545 33.7184C17.7545 33.0277 17.7545 32.3625 17.7545 31.6717C17.7545 31.5694 17.6777 31.3903 17.908 31.3903C18.1126 31.3903 18.3429 31.3136 18.3173 31.6717Z" fill="#E99D2C"/>
<path d="M42.875 32.2348C42.875 31.7231 42.875 31.237 42.875 30.7254C42.875 30.5207 42.9773 30.4951 43.1308 30.4951C43.2843 30.4951 43.3867 30.4951 43.3867 30.7254C43.3867 31.7231 43.3867 32.7209 43.3867 33.7186C43.3867 33.9233 43.2843 33.9488 43.1308 33.9488C42.9773 33.9488 42.875 33.9488 42.875 33.7186C42.875 33.2325 42.875 32.7464 42.875 32.2348Z" fill="#E99D2C"/>
<path d="M31.1602 32.2093C31.1602 31.7233 31.1602 31.2628 31.1602 30.7767C31.1602 30.572 31.2113 30.4953 31.416 30.5209C31.5951 30.5209 31.6974 30.5464 31.6974 30.7767C31.6974 31.7744 31.6974 32.7466 31.6974 33.7443C31.6974 33.949 31.6207 33.9746 31.4416 33.9746C31.2625 33.9746 31.1602 33.949 31.1602 33.7187C31.1602 33.2071 31.1602 32.721 31.1602 32.2093Z" fill="#E99D2C"/>
<path d="M58.2773 32.6696C58.2773 32.3115 58.2773 31.9533 58.2773 31.5952C58.2773 31.3649 58.4053 31.3905 58.5588 31.3905C58.7123 31.3905 58.8146 31.4161 58.8146 31.5952C58.8146 32.3115 58.8146 33.0534 58.8146 33.7697C58.8146 33.9744 58.6867 33.9488 58.5588 33.9488C58.4308 33.9488 58.3029 33.9744 58.3029 33.7697C58.2773 33.4116 58.2773 33.0278 58.2773 32.6696Z" fill="#E99D2C"/>
<path d="M58.509 30.3926C58.7648 30.3926 58.8672 30.5205 58.8672 30.7252C58.8672 30.9298 58.7393 31.0577 58.5346 31.0577C58.3299 31.0577 58.1764 30.9298 58.202 30.7252C58.202 30.5205 58.3299 30.3926 58.509 30.3926Z" fill="#E99D2C"/>
</svg>
