<svg width="40" height="25" viewBox="0 0 40 25" fill="none" xmlns="http://www.w3.org/2000/svg">
<path d="M40 12.7998C40 19.403 34.6667 24.7998 28 24.7998C21.3968 24.7998 16 19.403 16 12.7998C16 6.19663 21.3333 0.799805 27.9365 0.799805C34.6667 0.799805 40 6.19663 40 12.7998Z" fill="#FFB600"/>
<path d="M28 0.799805C34.6032 0.799805 40 6.19663 40 12.7998C40 19.403 34.6667 24.7998 28 24.7998C21.3968 24.7998 16 19.403 16 12.7998" fill="#F7981D"/>
<path d="M28 0.799805C34.6032 0.799805 40 6.19663 40 12.7998C40 19.403 34.6667 24.7998 28 24.7998" fill="#FF8500"/>
<path d="M11.873 0.799805C5.33333 0.863297 0 6.19663 0 12.7998C0 19.403 5.33333 24.7998 12 24.7998C15.1111 24.7998 17.9048 23.5935 20.0635 21.6887C20.5079 21.3077 20.8889 20.8633 21.2698 20.4188H18.7936C18.4762 20.0379 18.1587 19.5935 17.9048 19.2125H22.1587C22.4127 18.8315 22.6667 18.3871 22.8571 17.9427H17.2063C17.0159 17.5617 16.8254 17.1173 16.6984 16.6728H23.3016C23.6825 15.4665 23.9365 14.1966 23.9365 12.8633C23.9365 11.9744 23.8095 11.149 23.6825 10.3236H16.3175C16.381 9.87917 16.5079 9.49822 16.6349 9.05377H23.2381C23.1111 8.60933 22.9206 8.16488 22.7302 7.78393H17.1429C17.3333 7.33949 17.5873 6.95853 17.8413 6.51409H22.0952C21.8413 6.06965 21.5238 5.6252 21.1429 5.24425H18.7936C19.1746 4.7998 19.5556 4.41885 20 4.0379C17.9048 2.06965 15.0476 0.926789 11.9365 0.926789C11.9365 0.799805 11.9365 0.799805 11.873 0.799805Z" fill="#FF5050"/>
<path d="M0 12.7998C0 19.4029 5.33333 24.7998 12 24.7998C15.1111 24.7998 17.9048 23.5934 20.0635 21.6887C20.5079 21.3077 20.8889 20.8633 21.2698 20.4188H18.7936C18.4762 20.0379 18.1587 19.5934 17.9048 19.2125H22.1587C22.4127 18.8315 22.6667 18.3871 22.8571 17.9426H17.2063C17.0159 17.5617 16.8254 17.1172 16.6984 16.6728H23.3016C23.6825 15.4664 23.9365 14.1966 23.9365 12.8633C23.9365 11.9744 23.8095 11.149 23.6825 10.3236H16.3175C16.381 9.87914 16.5079 9.49819 16.6349 9.05374H23.2381C23.1111 8.6093 22.9206 8.16485 22.7302 7.7839H17.1429C17.3333 7.33946 17.5873 6.9585 17.8413 6.51406H22.0952C21.8413 6.06961 21.5238 5.62517 21.1429 5.24422H18.7936C19.1746 4.79977 19.5556 4.41882 20 4.03787C17.9048 2.06962 15.0476 0.926758 11.9365 0.926758H11.873" fill="#E52836"/>
<path d="M12 24.7998C15.1111 24.7998 17.9048 23.5934 20.0635 21.6887C20.508 21.3077 20.8889 20.8633 21.2699 20.4188H18.7937C18.4762 20.0379 18.1588 19.5934 17.9048 19.2125H22.1588C22.4127 18.8315 22.6667 18.3871 22.8572 17.9426H17.2064C17.0159 17.5617 16.8254 17.1172 16.6984 16.6728H23.3016C23.6826 15.4664 23.9365 14.1966 23.9365 12.8633C23.9365 11.9744 23.8096 11.149 23.6826 10.3236H16.3175C16.381 9.87914 16.508 9.49819 16.635 9.05374H23.2381C23.1111 8.6093 22.9207 8.16485 22.7302 7.7839H17.1429C17.3334 7.33946 17.5873 6.9585 17.8413 6.51406H22.0953C21.8413 6.06961 21.5238 5.62517 21.1429 5.24422H18.7937C19.1746 4.79977 19.5556 4.41882 20 4.03787C17.9048 2.06962 15.0476 0.926758 11.9365 0.926758H11.873" fill="#CB2026"/>
<path d="M16.2534 15.8471L16.4439 14.7677C16.3804 14.7677 16.2534 14.8312 16.1264 14.8312C15.6819 14.8312 15.6185 14.5772 15.682 14.4502L16.0629 12.228H16.7613L16.9518 11.0217H16.3169L16.4439 10.2598H15.174C15.174 10.2598 14.4121 14.4502 14.4121 14.9582C14.4121 15.7201 14.8566 16.0375 15.428 16.0375C15.8089 16.0375 16.1264 15.9106 16.2534 15.8471Z" fill="white"/>
<path d="M16.6973 13.8154C16.6973 15.5931 17.9036 16.0376 18.9195 16.0376C19.8719 16.0376 20.2528 15.8471 20.2528 15.8471L20.5068 14.6408C20.5068 14.6408 19.8084 14.9582 19.1735 14.9582C17.7766 14.9582 18.0306 13.9424 18.0306 13.9424H20.6338C20.6338 13.9424 20.8242 13.117 20.8242 12.7995C20.8242 11.9741 20.3798 10.9582 18.983 10.9582C17.6496 10.8312 16.6973 12.2281 16.6973 13.8154ZM18.9195 11.9741C19.6179 11.9741 19.4909 12.7995 19.4909 12.863H18.0941C18.0941 12.7995 18.2211 11.9741 18.9195 11.9741Z" fill="white"/>
<path d="M26.9843 15.8472L27.2382 14.4504C27.2382 14.4504 26.6033 14.7678 26.1589 14.7678C25.27 14.7678 24.889 14.0694 24.889 13.3075C24.889 11.7837 25.6509 10.9583 26.5398 10.9583C27.1747 10.9583 27.6827 11.3393 27.6827 11.3393L27.8731 10.0059C27.8731 10.0059 27.1112 9.68848 26.4128 9.68848C24.9525 9.68848 23.4922 10.9583 23.4922 13.371C23.4922 14.9583 24.2541 16.0377 25.7779 16.0377C26.2858 16.0377 26.9843 15.8472 26.9843 15.8472Z" fill="white"/>
<path d="M9.27012 10.8311C8.38123 10.8311 7.74631 11.085 7.74631 11.085L7.55583 12.1644C7.55583 12.1644 8.12726 11.9104 8.95266 11.9104C9.3971 11.9104 9.77806 11.9739 9.77806 12.3549C9.77806 12.6088 9.71456 12.6723 9.71456 12.6723C9.71456 12.6723 9.33361 12.6723 9.14314 12.6723C8.06377 12.6723 6.85742 13.1168 6.85742 14.5771C6.85742 15.7199 7.61933 15.9739 8.06377 15.9739C8.95266 15.9739 9.33361 15.4025 9.3971 15.4025L9.33361 15.9104H10.4765L10.9844 12.4184C10.9844 10.8945 9.71456 10.8311 9.27012 10.8311ZM9.52409 13.6882C9.52409 13.8787 9.3971 14.8945 8.6352 14.8945C8.25425 14.8945 8.12726 14.5771 8.12726 14.3866C8.12726 14.0691 8.31774 13.6247 9.27012 13.6247C9.4606 13.6882 9.52409 13.6882 9.52409 13.6882Z" fill="white"/>
<path d="M12.1908 15.9739C12.5082 15.9739 14.0955 16.0374 14.0955 14.3231C14.0955 12.7358 12.5717 13.0533 12.5717 12.4184C12.5717 12.1009 12.8257 11.9739 13.2702 11.9739C13.4606 11.9739 14.159 12.0374 14.159 12.0374L14.3495 10.8946C14.3495 10.8946 13.9051 10.7676 13.1432 10.7676C12.1908 10.7676 11.2384 11.1485 11.2384 12.4184C11.2384 13.8787 12.8257 13.7517 12.8257 14.3231C12.8257 14.7041 12.3813 14.7676 12.0638 14.7676C11.4924 14.7676 10.9209 14.5771 10.9209 14.5771L10.7305 15.72C10.794 15.8469 11.1114 15.9739 12.1908 15.9739Z" fill="white"/>
<path d="M37.5233 9.81543L37.2694 11.5297C37.2694 11.5297 36.7614 10.8948 36.063 10.8948C34.9202 10.8948 33.9043 12.2916 33.9043 13.9424C33.9043 14.9583 34.4122 16.0377 35.4916 16.0377C36.2535 16.0377 36.6979 15.5297 36.6979 15.5297L36.6345 15.9742H37.9043L38.8567 9.87892L37.5233 9.81543ZM36.9519 13.1805C36.9519 13.8789 36.6345 14.7678 35.936 14.7678C35.4916 14.7678 35.2376 14.3869 35.2376 13.7519C35.2376 12.7361 35.6821 12.1011 36.2535 12.1011C36.6979 12.1011 36.9519 12.4186 36.9519 13.1805Z" fill="white"/>
<path d="M2.34893 15.9107L3.11083 11.3392L3.23782 15.9107H4.1267L5.7775 11.3392L5.07909 15.9107H6.41242L7.42829 9.81543H5.33305L4.06321 13.5615L3.99972 9.81543H2.15845L1.14258 15.9107H2.34893Z" fill="white"/>
<path d="M22.0316 15.9104C22.4125 13.8152 22.476 12.1009 23.3649 12.4183C23.4919 11.5929 23.6824 11.2755 23.8094 10.958C23.8094 10.958 23.7459 10.958 23.5554 10.958C22.984 10.958 22.5395 11.7199 22.5395 11.7199L22.6665 11.0215H21.4602L20.6348 15.9739H22.0316V15.9104Z" fill="white"/>
<path d="M29.9049 10.8311C29.016 10.8311 28.3811 11.085 28.3811 11.085L28.1906 12.1644C28.1906 12.1644 28.762 11.9104 29.5874 11.9104C30.0319 11.9104 30.4128 11.9739 30.4128 12.3549C30.4128 12.6088 30.3493 12.6723 30.3493 12.6723C30.3493 12.6723 29.9684 12.6723 29.7779 12.6723C28.6985 12.6723 27.4922 13.1168 27.4922 14.5771C27.4922 15.7199 28.2541 15.9739 28.6985 15.9739C29.5874 15.9739 29.9684 15.4025 30.0319 15.4025L29.9684 15.9104H31.1112L31.6192 12.4184C31.6827 10.8945 30.3493 10.8311 29.9049 10.8311ZM30.2223 13.6882C30.2223 13.8787 30.0954 14.8945 29.3335 14.8945C28.9525 14.8945 28.8255 14.5771 28.8255 14.3866C28.8255 14.0691 29.016 13.6247 29.9684 13.6247C30.1589 13.6882 30.1589 13.6882 30.2223 13.6882Z" fill="white"/>
<path d="M32.6976 15.9104C33.0786 13.8152 33.1421 12.1009 34.0309 12.4183C34.1579 11.5929 34.3484 11.2755 34.4754 10.958C34.4754 10.958 34.4119 10.958 34.2214 10.958C33.65 10.958 33.2055 11.7199 33.2055 11.7199L33.3325 11.0215H32.1262L31.3008 15.9739H32.6976V15.9104Z" fill="white"/>
<path d="M14.2852 14.9582C14.2852 15.7201 14.7296 16.0375 15.301 16.0375C15.7455 16.0375 16.1264 15.9106 16.2534 15.8471L16.4439 14.7677C16.3804 14.7677 16.2534 14.8312 16.1264 14.8312C15.682 14.8312 15.6185 14.5772 15.682 14.4502L16.0629 12.228H16.7613L16.9518 11.0217H16.3169L16.4439 10.2598" fill="#DCE5E5"/>
<path d="M17.334 13.8154C17.334 15.5931 17.9054 16.0376 18.9213 16.0376C19.8737 16.0376 20.2546 15.8471 20.2546 15.8471L20.5086 14.6408C20.5086 14.6408 19.8102 14.9582 19.1753 14.9582C17.7784 14.9582 18.0324 13.9424 18.0324 13.9424H20.6356C20.6356 13.9424 20.826 13.117 20.826 12.7995C20.826 11.9741 20.3816 10.9582 18.9848 10.9582C17.6514 10.8312 17.334 12.2281 17.334 13.8154ZM18.9213 11.9741C19.6197 11.9741 19.7467 12.7995 19.7467 12.863H18.0959C18.0959 12.7995 18.2229 11.9741 18.9213 11.9741Z" fill="#DCE5E5"/>
<path d="M26.9841 15.8472L27.2381 14.4504C27.2381 14.4504 26.6031 14.7678 26.1587 14.7678C25.2698 14.7678 24.8889 14.0694 24.8889 13.3075C24.8889 11.7837 25.6508 10.9583 26.5397 10.9583C27.1746 10.9583 27.6825 11.3393 27.6825 11.3393L27.873 10.0059C27.873 10.0059 27.1111 9.68848 26.4127 9.68848C24.9523 9.68848 24.127 10.9583 24.127 13.371C24.127 14.9583 24.2539 16.0377 25.7777 16.0377C26.2857 16.0377 26.9841 15.8472 26.9841 15.8472Z" fill="#DCE5E5"/>
<path d="M7.55583 12.2278C7.55583 12.2278 8.12726 11.9739 8.95266 11.9739C9.3971 11.9739 9.77806 12.0374 9.77806 12.4183C9.77806 12.6723 9.71456 12.7358 9.71456 12.7358C9.71456 12.7358 9.33361 12.7358 9.14314 12.7358C8.06377 12.7358 6.85742 13.1802 6.85742 14.6405C6.85742 15.7834 7.61933 16.0374 8.06377 16.0374C8.95266 16.0374 9.33361 15.4659 9.3971 15.4659L9.33361 15.9739H10.4765L10.9844 12.4818C10.9844 11.0215 9.71456 10.958 9.20663 10.958L7.55583 12.2278ZM10.159 13.6882C10.159 13.8786 9.3971 14.8945 8.6352 14.8945C8.25425 14.8945 8.12726 14.5771 8.12726 14.3866C8.12726 14.0691 8.31774 13.6247 9.27012 13.6247C9.4606 13.6882 10.159 13.6882 10.159 13.6882Z" fill="#DCE5E5"/>
<path d="M10.793 15.8469C10.793 15.8469 11.1739 15.9739 12.2533 15.9739C12.5707 15.9739 14.158 16.0374 14.158 14.3231C14.158 12.7358 12.6342 13.0533 12.6342 12.4184C12.6342 12.1009 12.8882 11.9739 13.3327 11.9739C13.5231 11.9739 14.2215 12.0374 14.2215 12.0374L14.412 10.8946C14.412 10.8946 13.9676 10.7676 13.2057 10.7676C12.2533 10.7676 11.9358 11.1485 11.9358 12.4184C11.9358 13.8787 12.8882 13.7517 12.8882 14.3231C12.8882 14.7041 12.4438 14.7676 12.1263 14.7676" fill="#DCE5E5"/>
<path d="M37.2699 11.5297C37.2699 11.5297 36.762 10.8948 36.0636 10.8948C34.9207 10.8948 34.5398 12.2916 34.5398 13.9424C34.5398 14.9583 34.4128 16.0376 35.4921 16.0376C36.254 16.0376 36.6985 15.5297 36.6985 15.5297L36.635 15.9741H37.9048L38.8572 9.87891L37.2699 11.5297ZM37.2064 13.1805C37.2064 13.8789 36.635 14.7678 35.9366 14.7678C35.4921 14.7678 35.2382 14.3868 35.2382 13.7519C35.2382 12.736 35.6826 12.1011 36.254 12.1011C36.6985 12.1011 37.2064 12.4186 37.2064 13.1805Z" fill="#DCE5E5"/>
<path d="M2.34893 15.9107L3.11083 11.3392L3.23782 15.9107H4.1267L5.7775 11.3392L5.07909 15.9107H6.41242L7.42829 9.81543H5.84099L4.06321 13.5615L3.99972 9.81543H3.30131L1.14258 15.9107H2.34893Z" fill="#DCE5E5"/>
<path d="M20.6973 15.9104H22.0306C22.4116 13.8152 22.475 12.1009 23.3639 12.4183C23.4909 11.5929 23.6814 11.2755 23.8084 10.958C23.8084 10.958 23.7449 10.958 23.5544 10.958C22.983 10.958 22.5385 11.7199 22.5385 11.7199L22.6655 11.0215" fill="#DCE5E5"/>
<path d="M28.1906 12.2278C28.1906 12.2278 28.762 11.9739 29.5874 11.9739C30.0319 11.9739 30.4128 12.0374 30.4128 12.4183C30.4128 12.6723 30.3493 12.7358 30.3493 12.7358C30.3493 12.7358 29.9684 12.7358 29.7779 12.7358C28.6985 12.7358 27.4922 13.1802 27.4922 14.6405C27.4922 15.7834 28.2541 16.0374 28.6985 16.0374C29.5874 16.0374 29.9684 15.4659 30.0319 15.4659L29.9684 15.9739H31.1112L31.6192 12.4818C31.6192 11.0215 30.3493 10.958 29.8414 10.958L28.1906 12.2278ZM30.7938 13.6882C30.7938 13.8786 30.0319 14.8945 29.27 14.8945C28.889 14.8945 28.762 14.5771 28.762 14.3866C28.762 14.0691 28.9525 13.6247 29.9049 13.6247C30.1589 13.6882 30.7938 13.6882 30.7938 13.6882Z" fill="#DCE5E5"/>
<path d="M31.3652 15.9104H32.6986C33.0795 13.8152 33.143 12.1009 34.0319 12.4183C34.1589 11.5929 34.3494 11.2755 34.4763 10.958C34.4763 10.958 34.4129 10.958 34.2224 10.958C33.6509 10.958 33.2065 11.7199 33.2065 11.7199L33.3335 11.0215" fill="#DCE5E5"/>
</svg>
