<svg width="48" height="48" viewBox="0 0 48 48" fill="none" xmlns="http://www.w3.org/2000/svg">
<path d="M34.6667 16C36.1394 16 37.3333 17.1939 37.3333 18.6667C37.3333 20.1394 36.1394 21.3333 34.6667 21.3333H13.3333C11.8606 21.3333 10.6667 20.1394 10.6667 18.6667C10.6667 17.1939 11.8606 16 13.3333 16H34.6667Z" fill="#1997CF"/>
<path fill-rule="evenodd" clip-rule="evenodd" d="M40 0C44.4183 0 48 3.58172 48 8V40C48 44.4183 44.4183 48 40 48H8C3.58172 48 0 44.4183 0 40V8C0 3.58172 3.58172 0 8 0H40ZM42.6667 40V10.6667H5.33333V40C5.33333 41.4728 6.52724 42.6667 8 42.6667H40C41.4728 42.6667 42.6667 41.4728 42.6667 40Z" fill="#1997CF"/>
</svg>
