<svg width="56" height="50" viewBox="0 0 56 50" fill="none" xmlns="http://www.w3.org/2000/svg">
<path fill-rule="evenodd" clip-rule="evenodd" d="M27.9661 7.85751L30.8648 4.95885C36.5925 -0.768836 45.8789 -0.768836 51.6066 4.95885C57.3343 10.6865 57.3343 19.973 51.6066 25.7007L28.0364 49.2709L28.0316 49.2661L27.9613 49.3363L4.3911 25.7661C-1.33659 20.0384 -1.33659 10.752 4.3911 5.02428C10.1188 -0.703407 19.4052 -0.703407 25.1329 5.02428L27.9661 7.85751ZM28.0316 41.7236L14.8682 28.5603L10.9994 24.8242L10.9956 24.8281L8.16234 21.9948C4.51744 18.35 4.51744 12.4404 8.16234 8.79552C11.8072 5.15063 17.7168 5.15063 21.3617 8.79552L27.9633 15.3971L27.9826 15.3778L27.9854 15.3807L34.636 8.73009C38.2809 5.0852 44.1904 5.0852 47.8353 8.73009C51.4802 12.375 51.4802 18.2845 47.8353 21.9294L41.0635 28.7012L41.0587 28.6964L28.0316 41.7236Z" fill="#1997CF"/>
</svg>
