<svg width="23" height="24" viewBox="0 0 23 24" fill="none" xmlns="http://www.w3.org/2000/svg">
<path d="M11.5021 2.9668C11.502 2.9668 11.502 2.9668 11.5021 2.9668C8.47791 2.9668 5.64062 4.31384 3.51278 6.75978C3.2822 7.02482 3.2822 7.41921 3.51278 7.68426L7.35027 12.0954C7.48404 12.2491 7.67785 12.3374 7.88162 12.3374H15.1225C15.3264 12.3374 15.5201 12.2491 15.6539 12.0954L19.4914 7.68426C19.722 7.41921 19.722 7.02477 19.4914 6.75973C17.3635 4.31384 14.5261 2.96684 11.5021 2.9668ZM11.0882 10.9288L11.502 10.0325L11.9158 10.9288H11.0882ZM14.8017 10.9288H13.4673L12.1414 8.05715C12.0263 7.80779 11.7767 7.6481 11.502 7.6481C11.2273 7.6481 10.9777 7.80779 10.8626 8.05715L9.53681 10.9288H8.20235L4.98884 7.23502C5.39032 6.82279 5.81632 6.45253 6.26264 6.12556L6.86897 6.85289C7.00828 7.01999 7.20852 7.10619 7.41028 7.10619C7.5693 7.10619 7.72922 7.05262 7.86087 6.94284C8.15962 6.69377 8.19991 6.2497 7.95088 5.95094L7.46948 5.37349C8.51246 4.82918 9.63559 4.49934 10.7977 4.40436V5.27174C10.7977 5.66069 11.1131 5.97602 11.502 5.97602C11.891 5.97602 12.2063 5.66069 12.2063 5.27174V4.40436C13.3684 4.49934 14.4916 4.82918 15.5345 5.37349L15.0531 5.95094C14.8041 6.2497 14.8444 6.69381 15.1431 6.94284C15.2748 7.05262 15.4347 7.10619 15.5937 7.10619C15.7955 7.10619 15.9957 7.01994 16.1351 6.85289L16.7414 6.12556C17.1877 6.45253 17.6137 6.82279 18.0151 7.23502L14.8017 10.9288Z" fill="#27AE60"/>
<path d="M21.3779 1.70171C20.403 0.62023 19.0088 0 17.5528 0H5.4486C3.99263 0 2.59845 0.62023 1.62355 1.70167C0.648647 2.7831 0.175845 4.23395 0.326278 5.68217L1.74994 19.3824C2.02348 22.0148 4.22561 24 6.87227 24H16.1291C18.7758 24 20.9779 22.0149 21.2515 19.3824L22.6751 5.68222C22.8256 4.234 22.3527 2.78315 21.3779 1.70171ZM21.274 5.53658L19.8504 19.2368C19.6517 21.1492 18.0519 22.5915 16.1291 22.5915H12.205V18.3673C12.205 17.9783 11.8897 17.663 11.5007 17.663C11.1118 17.663 10.7964 17.9783 10.7964 18.3673V22.5915H6.87227C4.9495 22.5915 3.34968 21.1493 3.15093 19.2368L1.72731 5.53658C1.61796 4.48444 1.96146 3.43047 2.66972 2.64478C3.37799 1.85914 4.39083 1.40855 5.4486 1.40855H17.5528C18.6105 1.40855 19.6234 1.85914 20.3317 2.64483C21.0399 3.43047 21.3834 4.48449 21.274 5.53658Z" fill="#27AE60"/>
</svg>
