<svg width="28" height="28" viewBox="0 0 28 28" fill="none" xmlns="http://www.w3.org/2000/svg">
<g clip-path="url(#clip0)">
<path d="M14.3358 18.1093C20.73 18.1093 24.1126 10.3317 19.478 5.69626C16.6426 2.86033 12.029 2.86039 9.19364 5.69626C4.60875 10.282 7.90039 18.1093 14.3358 18.1093Z" fill="#093A4F" fill-opacity="0.4"/>
<path d="M27.2491 20.0427L22.215 15.0076C21.3987 16.5552 20.1245 17.8391 18.6035 18.6656L23.6148 23.6777C24.6217 24.6837 26.2475 24.6802 27.2492 23.6772C28.2514 22.6753 28.2514 21.0445 27.2491 20.0427Z" fill="#093A4F" fill-opacity="0.4"/>
<path d="M0.813853 13.3938H4.3132C5.39754 13.3938 5.39907 11.7532 4.3132 11.7532H0.813853C-0.270546 11.7532 -0.272022 13.3938 0.813853 13.3938Z" fill="#093A4F" fill-opacity="0.4"/>
<path d="M0.813853 16.8938H5.62548C6.70982 16.8938 6.71135 15.2532 5.62548 15.2532H0.813853C-0.270546 15.2532 -0.272022 16.8938 0.813853 16.8938Z" fill="#093A4F" fill-opacity="0.4"/>
<path d="M0.813853 20.3938H9.12488C10.2092 20.3938 10.2108 18.7532 9.12488 18.7532H0.813853C-0.270546 18.7532 -0.272022 20.3938 0.813853 20.3938Z" fill="#093A4F" fill-opacity="0.4"/>
<path d="M18.7481 22.2532H0.813832C-0.270512 22.2532 -0.272043 23.8938 0.813832 23.8938H18.7481C19.8324 23.8938 19.834 22.2532 18.7481 22.2532Z" fill="#093A4F" fill-opacity="0.4"/>
</g>
<defs>
<clipPath id="clip0">
<rect width="28" height="28" fill="white"/>
</clipPath>
</defs>
</svg>
