<svg width="12" height="12" viewBox="0 0 12 12" fill="none" xmlns="http://www.w3.org/2000/svg">
<path fill-rule="evenodd" clip-rule="evenodd" d="M8.71111 1.89474V1.26316C8.71111 0.565535 8.15395 0 7.46667 0H3.73333C3.04605 0 2.48889 0.565535 2.48889 1.26316V1.89474H0.622222C0.278579 1.89474 0 2.1775 0 2.52632C0 2.87513 0.278579 3.15789 0.622222 3.15789H1.24444V10.1053C1.24444 11.1517 2.08018 12 3.11111 12H8.08889C9.11982 12 9.95555 11.1517 9.95555 10.1053V3.15789H10.5778C10.9214 3.15789 11.2 2.87513 11.2 2.52632C11.2 2.1775 10.9214 1.89474 10.5778 1.89474H8.71111ZM7.46667 1.26316H3.73333V1.89474H7.46667V1.26316ZM8.71111 3.15789H2.48889V10.1053C2.48889 10.4541 2.76747 10.7368 3.11111 10.7368H8.08889C8.43253 10.7368 8.71111 10.4541 8.71111 10.1053V3.15789Z" fill="#0B445D" fill-opacity="0.45"/>
</svg>
