<svg width="19" height="24" viewBox="0 0 19 24" fill="none" xmlns="http://www.w3.org/2000/svg">
<path d="M17.5649 8.63871C16.8482 7.09971 15.8472 5.59859 14.5897 4.1771C14.3262 3.87912 13.8714 3.86107 13.5845 4.12892L10.2758 7.21699V0.749932C10.2758 0.208573 9.62308 -0.195911 9.13427 0.099776C6.44706 1.72521 3.18292 4.98565 1.51127 8.4671C0.561578 10.4449 0.0800781 12.4947 0.0800781 14.5596C0.0800313 19.7651 4.30474 24 9.49759 24C16.0223 24 21.5768 17.2542 17.5649 8.63871ZM7.32494 20.4124C7.32494 18.5934 8.78941 17.2583 9.49872 16.7184C10.2049 17.2919 11.6702 18.6897 11.6702 20.4124C11.6702 21.6133 10.6956 22.5903 9.49755 22.5903C8.29952 22.5903 7.32494 21.6133 7.32494 20.4124ZM12.7548 21.8959C13.8299 19.5335 12.051 16.6784 9.90095 15.2606C9.67577 15.1122 9.38589 15.1057 9.15428 15.2442C6.91417 16.584 5.16311 19.5289 6.2403 21.8959C3.44163 20.6424 1.48628 17.8257 1.48628 14.5596C1.48628 9.44852 4.81488 4.99723 8.86956 1.99099V8.83639C8.86956 9.45063 9.60278 9.77126 10.0518 9.35225L14.0065 5.66126C16.3312 8.48051 17.5089 11.471 17.5089 14.5597C17.5089 17.8257 15.5535 20.6424 12.7548 21.8959Z" fill="#0E5676"/>
</svg>
