<svg width="19" height="19" viewBox="0 0 19 19" fill="none" xmlns="http://www.w3.org/2000/svg">
<path d="M14.7129 4.88477H4.96289V13.8848H14.7129V4.88477Z" fill="white"/>
<path d="M10.2129 8.08213L10.7379 8.67424L11.5629 8.20056V11.6348H12.4629V7.13477H11.7129L10.2129 8.08213Z" fill="#1E88E5"/>
<path d="M9.5411 9.28361C9.86483 9.05591 10.0658 8.74015 10.0658 8.39147C10.0658 7.69846 9.27176 7.13477 8.29594 7.13477C7.46617 7.13477 6.75657 7.53502 6.57114 8.10784L7.4294 8.27484C7.51486 8.01144 7.87898 7.82024 8.29594 7.82024C8.78385 7.82024 9.18112 8.0765 9.18112 8.39147C9.18112 8.70643 8.78385 8.96269 8.29594 8.96269H7.77953V9.64816H8.29594C8.85585 9.64816 9.32822 9.94608 9.32822 10.2987C9.32822 10.6573 8.87967 10.9493 8.32805 10.9493C7.82978 10.9493 7.40402 10.7073 7.33668 10.3868L6.46289 10.4963C6.5986 11.1453 7.40039 11.6348 8.32753 11.6348C9.36707 11.6348 10.2129 11.0354 10.2129 10.2987C10.2129 9.89292 9.95184 9.52876 9.5411 9.28361Z" fill="#1E88E5"/>
<path d="M14.2697 17.6348H5.40607L4.96289 15.7598L5.40607 13.8848H14.2697L14.7129 15.7598L14.2697 17.6348Z" fill="#FBC02D"/>
<path d="M15.8379 13.8848L17.7129 13.4757V5.29386L15.8379 4.88477L13.9629 5.29386V13.4757L15.8379 13.8848Z" fill="#4CAF50"/>
<path d="M14.2732 4.65201L14.7129 2.89339L14.2732 1.13477H3.28186C2.55335 1.13477 1.96289 1.72522 1.96289 2.45373V13.4451L3.72151 13.8848L5.48013 13.4451V4.65201H14.2732Z" fill="#1E88E5"/>
<path d="M13.9629 13.8848V17.6348L17.7129 13.8848H13.9629Z" fill="#E53935"/>
<path d="M16.3066 1.13477H13.9629V4.88477H17.7129V2.54102C17.7129 1.7643 17.0834 1.13477 16.3066 1.13477Z" fill="#1565C0"/>
<path d="M3.36914 17.6348H5.71289V13.8848H1.96289V16.2285C1.96289 17.0052 2.59242 17.6348 3.36914 17.6348Z" fill="#1565C0"/>
</svg>
