<svg width="100" height="42" viewBox="0 0 100 42" fill="none" xmlns="http://www.w3.org/2000/svg">
<path d="M41.3717 22.8148C38.2976 22.8148 35.2235 22.8148 32.1494 22.8148C31.2976 22.8148 30.9642 23.2963 31.2605 24.0741C32.7791 27.7408 37.0013 29.3704 40.4828 27.4445C40.9643 27.1852 41.4087 27.0371 41.9643 27.0741C44.1494 27.0741 46.2976 27.0741 48.4828 27.0741C49.0013 27.0741 49.4457 27.1482 49.705 27.6297C49.9642 28.1482 49.8161 28.5926 49.5198 29.0371C47.1865 32.4445 43.8902 34.4445 39.8531 35.1111C35.3717 35.8519 31.2976 34.8148 27.8161 31.8889C24.4457 29.1111 22.8161 25.4445 23.1124 21.0371C23.3717 16.8519 25.3717 13.6297 28.742 11.2593C34.2976 7.33337 42.0754 7.74078 47.1865 12.1852C50.0754 14.7037 51.5939 17.926 51.6309 21.8149C51.6309 22.5556 51.3717 22.8148 50.5939 22.8148C47.5198 22.8148 44.4457 22.8148 41.3717 22.8148ZM37.3346 17.963C38.6309 17.963 39.8902 17.963 41.1865 17.963C41.4087 17.963 41.6309 18 41.742 17.7408C41.8531 17.4445 41.6309 17.2963 41.4457 17.1482C39.0013 15.1852 35.668 15.1852 33.1865 17.1482C33.0013 17.2963 32.8161 17.4074 32.8902 17.7037C33.0013 18 33.2605 17.963 33.4828 17.963C34.7791 17.963 36.0754 17.963 37.3346 17.963Z" fill="#1997CF"/>
<path d="M86.2607 8.59277C88.9644 8.62981 92.4088 9.81499 95.2607 12.5187C97.7422 14.8891 99.1866 17.778 99.2977 21.2594C99.4829 27.0372 96.7792 31.1483 91.7422 33.7409C86.1496 36.6298 79.1125 35.5187 74.6681 31.1854C68.6681 25.3335 69.7051 15.5557 76.7792 11.0002C79.3347 9.40759 82.0385 8.59277 86.2607 8.59277ZM85.0385 15.6298C81.557 15.6298 78.557 18.5187 78.557 21.8891C78.557 25.3335 81.4829 28.2224 85.0385 28.2224C88.594 28.2224 91.5199 25.3706 91.557 21.9261C91.594 18.6668 88.7051 15.7039 85.0385 15.6298Z" fill="#1997CF"/>
<path d="M21.9644 26.1109C21.9644 28.5554 21.9644 31.0369 21.9644 33.4813C21.9644 34.2591 21.7052 34.5183 20.9274 34.5183C19.0014 34.5183 17.1126 34.5183 15.1866 34.5183C14.4089 34.5183 14.1126 34.2221 14.1126 33.4443C14.1126 28.8146 14.1126 24.2221 14.1126 19.5924C14.1126 18.8146 14.0014 18.0369 13.7052 17.2961C13.2237 16.2591 12.4089 15.7406 11.2607 15.6665C10.8903 15.6665 10.557 15.6295 10.1866 15.7035C9.07552 15.8887 8.40885 16.5924 8.07552 17.6295C7.8533 18.3332 7.77922 19.0369 7.77922 19.7776C7.77922 24.2961 7.77922 28.8146 7.77922 33.3332C7.77922 34.2591 7.51996 34.4813 6.63108 34.4813C4.74219 34.4813 2.89034 34.4813 1.00145 34.4813C0.260706 34.4813 0.00144676 34.185 0.00144676 33.4443C0.00144676 28.5924 -0.0355903 23.7776 0.0384838 18.9258C0.0755208 16.4813 0.668114 14.0739 2.33478 12.0739C3.74219 10.3702 5.63108 9.51835 7.74219 9.03687C10.3348 8.44427 12.8903 8.55539 15.4089 9.3702C18.9274 10.5183 20.9644 12.9628 21.6681 16.5554C21.8903 17.5924 21.9644 18.6295 21.9644 19.6665C21.9644 21.8146 21.9644 23.9628 21.9644 26.1109Z" fill="#1997CF"/>
<path d="M52.8516 17.2593C52.8516 11.8519 52.8516 6.48148 52.8516 1.07407C52.8516 0.259259 53.1108 0 53.8886 0C55.8145 0 57.7404 0 59.6664 0C60.333 0 60.5923 0.259259 60.5923 0.962963C60.5923 9.88889 60.5923 18.8519 60.5923 27.7778C60.5923 31.4074 57.3701 34.5556 53.7405 34.5556C53.1108 34.5556 52.8516 34.2593 52.8516 33.5556C52.8516 28.1481 52.8516 22.7037 52.8516 17.2593Z" fill="#1997CF"/>
<path d="M69.5942 17.2222C69.5942 22.5926 69.5942 27.963 69.5942 33.3333C69.5942 34.2593 69.372 34.4815 68.446 34.4815C65.2979 34.4444 62.409 31.963 61.9275 28.8148C61.8534 28.3704 61.8164 27.9259 61.8164 27.4815C61.8164 18.7037 61.8164 9.92593 61.8164 1.14815C61.8164 0.222222 62.0386 0 62.9646 0C64.8164 0 66.7053 0 68.5572 0C69.3349 0 69.5942 0.259259 69.5942 1.03704C69.5942 6.44444 69.5942 11.8148 69.5942 17.2222Z" fill="#1997CF"/>
<path d="M37.9277 39.8517C37.9277 39.2591 37.9647 38.6665 37.9277 38.0739C37.9277 37.7405 38.0388 37.6665 38.3351 37.7035C39.261 37.7035 40.1869 37.7776 41.0758 37.7035C42.7795 37.5554 43.6314 39.3331 43.1128 40.6665C42.7795 41.5183 42.1499 41.9998 41.224 41.9998C40.261 41.9998 39.298 41.9998 38.3351 41.9998C37.9647 41.9998 37.8906 41.8887 37.8906 41.5554C37.9647 40.9628 37.9277 40.4072 37.9277 39.8517Z" fill="#E99D2C"/>
<path d="M36.9645 39.8519C36.9645 40.4445 36.9645 41.0741 36.9645 41.6667C36.9645 41.889 36.8904 41.963 36.6682 41.963C35.5941 41.963 34.5201 41.963 33.446 41.963C32.2978 41.926 31.446 40.6667 31.6682 39.4075C31.8534 38.4445 32.6312 37.6297 33.7423 37.6667C34.7052 37.7038 35.6682 37.7038 36.6312 37.6667C36.8904 37.6667 37.0015 37.7408 37.0015 38.0001C36.9645 38.6297 36.9645 39.2593 36.9645 39.8519Z" fill="#1997CF"/>
</svg>
